<?xml version="1.0" encoding="utf-8"?>
<!-- Generator: Adobe Illustrator 25.0.0, SVG Export Plug-In . SVG Version: 6.00 Build 0)  -->
<svg version="1.1" xmlns="http://www.w3.org/2000/svg" xmlns:xlink="http://www.w3.org/1999/xlink" x="0px" y="0px"
	 viewBox="0 0 113.39 113.39" style="enable-background:new 0 0 113.39 113.39;" xml:space="preserve">
<style type="text/css">
	.st0{display:none;}
	.st1{display:inline;}
	.st2{display:inline;fill-rule:evenodd;clip-rule:evenodd;}
	.st3{display:inline;fill:#003C5A;}
	.st4{display:inline;opacity:0.64;fill:#F4DE25;}
	.st5{fill:#003C5A;}
	.st6{fill:#FFFFFF;}
	.st7{display:inline;fill:#040000;}
	.st8{fill:#040000;}
	.st9{fill:#0068B7;}
</style>
<g id="圖層_1" class="st0">
</g>
<g id="ok">
</g>
<g id="圖層_3" class="st0">
</g>
<g id="圖層_5">
	<path class="st9" d="M77.3,95.52H40.29c-9.16,0-16.58-7.43-16.58-16.58V41.92c0-9.16,7.43-16.58,16.58-16.58H77.3
		c9.16,0,16.58,7.43,16.58,16.58v37.01C93.88,88.1,86.46,95.52,77.3,95.52z"/>
	<g>
		<path class="st6" d="M80.59,84.71L63.08,63.33c-2.63-3.35-5.84-7.13-12.71-7.45c-5.72-0.27-10.32-0.11-10.32-0.11L37,65.6h4.71
			c0,0,7.18-0.54,9.35,1.51c2.17,2.05,3.38,4.04,5.64,7.2s7.35,10.28,7.35,10.28L80.59,84.71z"/>
		<path class="st6" d="M64.1,47.15c0.92,0.84,1.37,1.96,1.37,3.35c0,1.79-3.08,8.39-4.23,9.56h11.5c1.33-2.24,3.8-7.63,4.47-10.59
			c0.51-2.26,0.89-3.97,0.29-5.92c-0.86-2.78-2.85-5.02-5.89-6.19c-2.14-0.82-8.17-1.22-11.02-1.22H48.98l-2.85,9.74h13.92
			C61.83,45.89,63.18,46.31,64.1,47.15z"/>
	</g>
</g>
<g id="圖層_2" class="st0">
</g>
</svg>
