<?xml version="1.0" encoding="utf-8"?>
<!-- Generator: Adobe Illustrator 25.0.0, SVG Export Plug-In . SVG Version: 6.00 Build 0)  -->
<svg version="1.1" xmlns="http://www.w3.org/2000/svg" xmlns:xlink="http://www.w3.org/1999/xlink" x="0px" y="0px"
	 viewBox="0 0 400 400" style="enable-background:new 0 0 400 400;" xml:space="preserve">
<style type="text/css">
	.st0{fill:#81CE96;}
	.st1{fill:#FFFFFF;}
	.st2{fill:#EBEBEB;}
	.st3{fill:#E6E6E6;}
	.st4{fill:none;stroke:#81CE96;stroke-miterlimit:10;}
</style>
<g id="步驟1">
</g>
<g id="步驟2">
	<g>
		<g>
			<path class="st2" d="M276.1,284.24c-2.51,4.6-3.94,9.3-6.3,13.94c-0.35,0.7-0.72,1.42-0.77,2.2c-0.25,3.44,3.48,3.22,4.92,5.2
				c1.43,1.97,1.15,4.07,2.1,6.25c1.77,4.05,3.35,6.65,7.64,2.84c5.12-4.55,12.47-4.2,15.83-10.18c2.45-4.34,4.03-8.97,6.09-13.49
				c5.91-13.02,11.59-26.15,18.27-38.81c6.06-11.48,12.12-22.96,18.18-34.44c3.03-5.73,6.24-11.4,9.09-17.22
				c0.61-1.24,6.8-12.99,6.66-13.24c-5.98-10.84-11.2-22.11-15.6-33.69c-5.2,9.34-8.97,19.26-13.89,28.71
				c-11.41,21.87-22.82,43.74-34.22,65.61C287.78,260.05,282.57,272.4,276.1,284.24z"/>
			<path class="st1" d="M195.5,186.08c8.99,0.03,17.89-0.26,26.88-0.26c2.06,0.1,23.23,0.05,23.73,0.92
				c4.39,7.54,8.45,16.07,13.44,23.05c-8.56,15.07-19.32,30.19-26.35,46c-5.7,10.62-11.44,21.22-17.15,31.84
				c-4.51,8.39-15.05,21.55-15.77,30.88c-0.06,0.73,20.25-0.09,22.07,0.03c4.91,0.31,9.78,3.38,14.59,4.43
				c5.95,1.3,10.35,3,14.93,7.45c0.47,0.46,1.09,0.97,1.71,0.76c0.42-0.15,0.66-0.58,0.84-0.99c2.54-5.78,5.39-11.76,8.28-17.48
				c4.96-9.82,9.9-19.65,14.82-29.49c14-28,25.88-57.53,41.3-84.76c8.21-14.49,16.22-28.62,21.5-44.62
				c-9.45-2.16-19.89,0.58-29.5,0.57c-10.89-0.02-21.78-0.48-32.67-0.69c-9.72-0.19-19.44-0.2-29.15,0.29
				c-10.88,0.54-21.76-0.53-32.64-0.66c-0.76-0.01-1.53-0.02-2.25,0.22c-3.14,1.02-6.17,11.02-7.74,13.87
				c-3.59,6.5-8.05,12.38-12.08,18.67C194.7,186.08,195.1,186.08,195.5,186.08z"/>
		</g>
		<g>
			<path class="st2" d="M257.35,207.07c0.65,1.41,1.11,2.71,1.13,3.71c0.07,4.26-5.06,9.37-6.82,13.16
				c-2.81,6.08-6.31,12.14-10.03,17.7c-13.79,20.62-22.95,43.88-36.25,64.81c-0.57,0.89-5.64,9.5-5.34,9.92
				c-1.08-1.55-3.32-1.76-5.15-1.3c-1.83,0.46-3.51,1.44-5.37,1.77c-4.13,0.74-3.69-2.1-5.2-4.71c-0.79-1.37-1.51-1.83-2.48-2.92
				c-0.56-0.63-1.93,0.22-2.3-0.87c-0.34-1.02,1.64-2.94,2.08-3.76c11.88-22.52,24.08-44.98,37.1-66.89
				c6.24-10.51,13.15-20.5,18.2-31.7c3.08-6.82,7.46-13.33,11.14-19.9c-0.88,1.57,4.68,11.28,5.4,13.23
				C254.21,201.32,256.11,204.38,257.35,207.07z"/>
			<path class="st1" d="M227.75,223.17c-6.4,11.36-13.06,23.23-19.59,34.78c-5.51,9.75-11.05,19.49-16.58,29.23
				c-7.26,12.77-14.52,25.54-21.78,38.31c-4.97,0.04-10.5,2.58-15.52,3.69c-14.39,3.18-28.73,7.42-42.88,2.5
				c-17.28-6.01-33.64-14.43-51.93-16.31c-0.39-1.99,3.67-6.4,4.72-8.09c2.12-3.41,4.15-6.87,6.17-10.35
				c2.73-4.7,5.51-9.4,8.02-14.22c2.98-5.72,5.52-11.27,8.98-16.85c8.24-13.46,16.84-26.71,25.14-40.13
				c4.31-6.96,8.56-13.96,12.7-21.02c3.23-5.52,5.4-11.42,9.24-16.49c0.25-0.33,0.5-0.66,0.84-0.88c0.49-0.32,1.11-0.38,1.69-0.43
				c14.39-1.18,28.84-1.07,43.26-0.77c7.39,0.16,14.78,0.37,22.17,0.5c14.89,0.25,29.75,0.5,44.69,0.36
				c-1.5,0.01-4.72,7.88-5.18,9.1C238.4,205.54,232.64,214.47,227.75,223.17z"/>
			<path class="st1" d="M136.78,213.65c-4.31,7.72-8.62,15.44-12.92,23.17c-0.96,1.73-1.78,4.24-0.18,5.39
				c0.79,0.57,1.87,0.5,2.82,0.29c4.18-0.94,7.89-4.25,12.14-3.76c2.8,0.33,5.1,2.26,7.45,3.82s5.32,2.85,7.92,1.76
				c1.95-0.82,3.15-2.75,4.22-4.58c10.22-17.41,20.07-35.05,29.52-52.89c0,0.37-31.31-1.02-34.16,0.36
				c-3.54,1.72-5.66,7.09-7.56,10.25C142.83,202.8,139.8,208.23,136.78,213.65z"/>
		</g>
		<g>
			<path class="st1" d="M175.96,160.67c-2.61-6.63-6.95-12.53-12.35-15.79c-6.95-4.19-15.43-5.98-23.47-4.81
				c-16.1,2.34-27.06,15.77-33.4,29.8c-3.33,7.37-5.25,15.13-8.66,22.47c-4.19,9.01-9.01,17.77-15.28,25.52
				c-5.03,6.21-11.72,13.58-10.62,22.24c1.05,8.3,8.59,12.55,16.25,13.41c4.87,0.55,7.51,0.35,10.26-3.88
				c2.45-3.77,3.91-8.08,6.25-11.91c9.67-15.81,18.92-31.81,28.33-47.79c0.68-1.15,1.39-2.34,2.49-3.11c1.73-1.2,6.7-0.3,8.89-0.45
				c3.66-0.26,7.32,0.17,10.99,0.15c4.55-0.03,9.09,0.21,13.64,0.21c4.58-0.01,6.44,0.57,7.92-3.37
				C179.67,176.74,178.94,168.24,175.96,160.67z"/>
			<path class="st0" d="M186.21,103.66c-3.36,18.37,19.86,30.37,34.75,22.93c7.44-3.72,13.48-12.34,16.39-19.92
				c2.18-5.68,4.42-23.41-7.19-19.25c-2.08,0.75-3.91,2.07-5.93,2.97c-9.09,4.04-15.86-3.91-25.09-1.34
				C192.06,91.03,187.45,96.86,186.21,103.66z"/>
			<path class="st4" d="M256.8,60.95c-2.19,1.12-4.13,2.59-5.49,4.21c-5.67,6.75-0.09,16.02,8.24,15.81
				c8.23-0.2,17.18-6.95,14.19-15.95C271.23,57.49,263.01,57.78,256.8,60.95z"/>
			<path class="st0" d="M332.19,330.36c-4.51,10.04-14.12,15.28-24.75,16.31c-4.65,0.45-24.4,2.68-26.58-3.43
				c-1.95-5.46,5.72-12.44,7.69-16.88c4.52-10.17,9.62-20.36,14.17-30.66c1.95-4.41,3.13-10.47,8.58-11.88
				c4.57-1.18,8.32,1.91,11.24,5.07c5.85,6.34,11.46,17.19,12.13,25.94C335.1,320.63,334.21,325.86,332.19,330.36z"/>
			<path class="st0" d="M213.15,65.5c0.01,0.01,0.01,0.03,0.02,0.04c2.2,3.93,8.68,4.2,11.35,0.46c3.05-4.27,0.63-11.81-5.38-11.44
				C214.27,54.86,210.83,61.28,213.15,65.5z"/>
			<path class="st2" d="M152.26,139.92c-0.27,0.37-0.53,0.75-0.8,1.15c3.8,1.47,8.18,2.37,11.73,4.29c2.82,1.57,5.59,3.56,7.62,6.1
				c5.18,6.49,7.89,14.81,7.88,23.09c0,4.26-1.61,8.59-3.01,12.51c4.49,0.43,9.02,0.44,13.5,0.01c4.65-0.44,6.61-0.86,9.01-5.04
				c3.46-6.02,6.92-12.04,10.39-18.06c2.88-5.01,4.01-10.34,10.53-10.27c13.59,0.16,27.18-0.01,40.76-0.51
				c5.97-0.22,12.17-0.27,18.15-0.09c5.45,0.17,11.41,1.05,16.79,0.04c-0.73-2.3-1.32-4.79-2.39-6.96c-1.38-2.8-3.76-5-5.57-7.51
				c-3.43-4.76-7.59-8.94-11.88-12.92c-5.03-4.67-11.23-6.69-17.65-8.89c-5.87-2.02-11.56-3.62-17.64-4.86
				c-5.51-1.13-6.87,5.4-10.13,8.84c-4.09,4.31-10.66,6.73-16.51,7.3c-6.13,0.61-13.94-1.12-18.85-5.01
				c-1.22-0.97-2.34-2.08-3.18-3.39c-0.39-0.6-0.73-1.26-1.3-1.68c-1.22-0.89-5.62,0.58-6.95,1.07c-7.01,2.6-13.83,6.09-19.89,10.48
				C158.32,132.89,155.41,135.52,152.26,139.92z"/>
		</g>
	</g>
	<g>
		<g>
			<g>
				<path class="st0" d="M254.39,329.96c-5.77-4.81-12.98-7.55-20.07-9.79c-7.63-2.41-15.47-4.44-23.54-4.17
					c-4.69,0.16-9.26,1.11-13.57,2.97c-1.77,0.76-0.24,3.35,1.51,2.59c7.19-3.1,15.32-3.1,22.9-1.67c6.92,1.31,13.95,3.5,20.42,6.26
					c3.61,1.54,7.18,3.41,10.22,5.93C253.74,333.3,255.88,331.19,254.39,329.96L254.39,329.96z"/>
			</g>
			<g>
				<path class="st0" d="M238.37,114.08c18.26,0.62,35.71,9.94,46.98,24.22c3.17,4.02,5.8,8.47,7.84,13.16
					c0.77,1.77,3.36,0.24,2.59-1.51c-7.61-17.43-23.38-30.82-41.52-36.26c-5.16-1.55-10.51-2.42-15.89-2.6
					C236.44,111.01,236.44,114.01,238.37,114.08L238.37,114.08z"/>
			</g>
			<g>
				<path class="st0" d="M270.2,104.54c12.77,4.03,24.1,12.39,31.78,23.36c2.2,3.14,4.1,6.49,5.68,9.98
					c0.79,1.76,3.38,0.23,2.59-1.51c-5.79-12.78-15.95-23.5-28.31-30.12c-3.49-1.87-7.17-3.41-10.95-4.6
					C269.16,101.06,268.37,103.96,270.2,104.54L270.2,104.54z"/>
			</g>
			<path class="st0" d="M189.81,116.47c-0.22,0.05-0.44,0.09-0.66,0.14c-0.75-0.24-1.74,0.08-2.45,0.25
				c-1.95,0.46-3.87,1.01-5.77,1.64c-3.8,1.28-7.5,2.9-11.02,4.83c-7.16,3.93-13.59,9.18-18.87,15.41c-1.24,1.47,0.87,3.6,2.12,2.12
				c4.78-5.64,10.47-10.44,16.86-14.15c3.13-1.82,6.41-3.39,9.81-4.65c1.76-0.65,3.54-1.23,5.35-1.73c0.87-0.24,1.75-0.46,2.63-0.66
				c0.01,0,0.02,0,0.02-0.01c0.85,0.26,1.97-0.13,2.77-0.31C192.49,118.94,191.7,116.05,189.81,116.47z M187.69,116.85
				c-0.02,0.01-0.04,0.02-0.05,0.03C187.86,116.67,187.92,116.74,187.69,116.85z"/>
			<g>
				<path class="st0" d="M131.5,143.16c7.11-13.5,18.69-24.37,32.51-30.8c3.9-1.82,7.98-3.23,12.16-4.27
					c1.87-0.47,1.08-3.36-0.8-2.89c-15.31,3.83-29.25,12.85-39.08,25.19c-2.81,3.52-5.29,7.28-7.39,11.26
					C128.01,143.35,130.6,144.87,131.5,143.16L131.5,143.16z"/>
			</g>
		</g>
		<g>
			<g>
				<path class="st0" d="M311.34,283.36c11.65,5.2,19.08,18.22,21.2,30.37c1.03,5.91,0.8,12.39-1.85,17.86
					c-2.99,6.19-8.5,9.76-14.94,11.66c-11.36,3.36-24.16,3.46-34.84-2.16c-1.71-0.9-3.23,1.69-1.51,2.59
					c10.04,5.28,21.78,5.93,32.74,3.58c7.81-1.67,15.27-4.79,19.77-11.72c7.65-11.77,3.97-28.08-2.8-39.35
					c-3.86-6.42-9.32-12.34-16.25-15.44C311.1,279.99,309.57,282.58,311.34,283.36L311.34,283.36z"/>
			</g>
			<g>
				<path class="st0" d="M178.36,184.78c4.63-14.36-0.81-31.16-13.15-39.89c-6.25-4.42-14.06-6.6-21.68-6.4
					c-7.76,0.2-15.07,2.92-21.16,7.7c-12.98,10.21-18.21,26.73-23.91,41.53c-3.13,8.1-6.64,16.22-12.04,23.11
					c-4.75,6.06-10.71,11.45-13.72,18.67c-2.57,6.15-2.4,13.7,2.03,18.96c3.81,4.53,9.97,6.38,15.67,6.87
					c1.45,0.13,2.91,0.15,4.37,0.1c1.93-0.06,1.93-3.06,0-3c-5.33,0.18-11.11-0.65-15.53-3.86c-4.91-3.57-6.14-9.9-4.6-15.55
					c1.89-6.93,7.36-12.25,11.85-17.58c5.24-6.21,9.13-13.1,12.29-20.56c5.98-14.12,9.88-29.8,20.34-41.51
					c4.86-5.43,10.99-9.54,18.15-11.13c6.92-1.54,14.45-0.8,20.93,2.1c13.06,5.85,20.67,20.56,18.47,34.65
					c-0.26,1.69-0.67,3.35-1.2,4.98C174.87,185.83,177.77,186.62,178.36,184.78L178.36,184.78z"/>
			</g>
			<path class="st0" d="M239.7,89.93c-1.15-2.13-2.86-4.33-5.37-4.81c-2.19-0.41-4.29,0.59-6.13,1.68
				c-2.49,1.51-5.03,3.65-8.03,3.92c-2.71,0.25-5.4-0.68-7.93-1.54c-2.5-0.85-4.99-1.75-7.63-2.07c-2.76-0.33-5.38,0.23-7.87,1.43
				c-9.58,4.64-13.68,16.78-9.72,26.44c4.35,10.6,15.5,16.41,26.69,14.98c11.66-1.48,20.92-9.8,25.36-20.45
				C241.64,103.37,243.03,96.06,239.7,89.93z M236.48,108.01c-3.79,9.57-12.01,17.25-22.35,18.9c-9.88,1.57-20.07-3.23-24.15-12.58
				c-3.7-8.48-0.18-19.1,8.28-23.19c5.22-2.53,10.27,0.11,15.35,1.64c2.6,0.78,5.41,1.3,8.11,0.73c2.97-0.63,5.46-2.57,8-4.12
				c1.16-0.68,2.6-1.58,4.01-1.34c1.89,0.32,3.08,2.68,3.8,4.21C239.84,97.21,238.4,103.17,236.48,108.01z"/>
			<path class="st0" d="M226.7,58.62c-0.73-1.78-2.02-3.32-3.82-4.08c-0.05-0.02-0.11-0.04-0.16-0.06c-0.06-0.03-0.13-0.07-0.2-0.09
				c-5.83-2.32-13.37,3.09-11.72,9.5c0.86,3.35,3.83,5.36,7.14,5.75c3.41,0.4,6.88-1.24,8.52-4.3
				C227.61,63.19,227.61,60.83,226.7,58.62z M224.14,63.22c-0.46,1.28-1.38,2.23-2.44,2.81c-0.88,0.48-1.96,0.69-3.05,0.65
				c-2-0.06-4.11-1.15-4.78-3.02c-0.1-0.27-0.17-0.54-0.23-0.82c0,0.01-0.04-0.27-0.05-0.31c-0.01-0.13-0.02-0.26-0.03-0.39
				c-0.01-0.23,0.01-0.45,0.03-0.68c0.01-0.07,0.05-0.25,0.05-0.27c0.03-0.14,0.07-0.29,0.11-0.43c0.03-0.11,0.07-0.22,0.12-0.33
				c0.02-0.04,0.11-0.24,0.12-0.25c0.11-0.22,0.23-0.43,0.37-0.63c0-0.01,0.14-0.19,0.16-0.23c0.08-0.09,0.15-0.19,0.24-0.27
				c0.2-0.22,0.41-0.43,0.64-0.62c0.79-0.68,1.87-1.2,3.08-1.45c0.12-0.02,0.24-0.05,0.36-0.06c0.04,0,0.27-0.03,0.28-0.03
				c0.34-0.03,0.69-0.03,1.03-0.01c0.07,0,0.14,0.01,0.21,0.02c-0.04,0,0.35,0.06,0.4,0.07c0.28,0.06,0.54,0.16,0.81,0.25
				c1,0.47,1.63,1.05,2.16,2.05C224.34,60.45,224.61,61.91,224.14,63.22z"/>
			<path class="st0" d="M274.13,62.24c-5.05-7.19-16.92-5.78-22.77-0.45c-4.07,3.71-4.8,9.26-2.86,14.26
				c0.8,1.93,1.9,3.66,3.56,4.96c1.87,1.46,4.09,1.95,6.41,2.18c4.6,0.46,8.9-0.48,12.31-3.72
				C275.17,75.3,277.93,67.65,274.13,62.24z M271.56,73.4c-1.78,3.49-4.92,6.4-8.94,6.85c-2.29,0.26-5.12,0.16-7.27-0.73
				c-1.85-0.77-3.21-2.45-3.97-4.27c-1.34-3.45-1.41-7.19,0.9-10.09c2.13-2.67,5.49-4.15,8.82-4.64c3.06-0.45,6.5-0.06,9.03,1.83
				c1.03,0.77,1.94,2,2.36,3.29C273.35,68.22,272.79,70.99,271.56,73.4z"/>
		</g>
		<g>
			<path class="st0" d="M247.65,185.42c-4.93,0-9.86,0-14.79,0c-11.26,0-22.53,0-33.79,0c-12.28,0-24.56,0-36.83,0
				c-8.09,0-16.18,0-24.26,0c-1.27,0-3.17-0.36-4,0.8c-0.76,1.06-1.36,2.27-2.02,3.39c-3.87,6.5-7.75,12.99-11.62,19.49
				c-5.92,9.93-11.85,19.87-17.77,29.8c-6.44,10.8-12.88,21.61-19.33,32.41c-5.44,9.11-10.87,18.23-16.31,27.34
				c-2.85,4.78-5.7,9.57-8.56,14.35c-0.13,0.21-0.25,0.43-0.38,0.64c-0.15,0.25-0.21,0.5-0.21,0.73c-4.97,0.4-9.81,1.8-14.07,4.67
				c-1.59,1.08-0.09,3.68,1.51,2.59c14.6-9.86,32.92-1.47,47.01,4.99c8.08,3.71,16.35,7.3,25.27,8.27
				c9.68,1.05,19.39-1.24,28.87-2.92c4.67-0.83,9.34-1.7,13.96-2.8c2.33-0.56,4.65-1.17,6.94-1.87c1.2-0.36,3.21-0.63,3.97-1.69
				c0.41-0.58,0.72-1.28,1.07-1.89c2.28-4.05,4.57-8.11,6.85-12.16c3.83-6.8,7.67-13.61,11.5-20.41
				c4.72-8.38,9.45-16.77,14.17-25.15c4.96-8.8,9.91-17.59,14.87-26.39c4.53-8.04,9.06-16.08,13.59-24.12
				c3.44-6.11,6.89-12.23,10.33-18.34c1.7-3.02,3.45-6.02,5.1-9.06c0.07-0.14,0.15-0.27,0.23-0.4
				C249.5,186.69,248.8,185.42,247.65,185.42z M238.58,199.96c-6.18,10.96-12.35,21.93-18.53,32.89
				c-7.49,13.29-14.97,26.58-22.46,39.87c-6.47,11.48-12.94,22.97-19.41,34.45c-2.13,3.79-4.27,7.58-6.4,11.37
				c-0.94,1.67-2.08,3.34-2.88,5.09c-8.4,2.8-17.13,4.38-25.84,5.9c-9.07,1.58-18.31,3.61-27.55,2.09
				c-16.61-2.72-30.38-13.91-46.99-16.7c-2.44-0.41-4.92-0.64-7.4-0.66c2.34-3.93,4.68-7.86,7.03-11.78
				c6.06-10.15,12.11-20.31,18.17-30.46c7.32-12.28,14.65-24.56,21.97-36.85c6.33-10.61,12.66-21.22,18.99-31.84
				c2.08-3.49,4.17-6.99,6.25-10.48c0.86-1.45,1.9-2.9,2.68-4.42c3.44,0,6.88,0,10.31,0c8.93,0,17.86,0,26.78,0
				c10.8,0,21.6,0,32.39,0c9.37,0,18.75,0,28.12,0c3.09,0,6.18,0,9.26,0c0.64,0,1.3,0.04,1.97,0.06
				C242.89,192.31,240.74,196.13,238.58,199.96z"/>
			<g>
				<path class="st0" d="M246.35,187.68c3.21,6.82,6.42,13.63,9.63,20.45c0.45,0.96,0.9,1.92,1.35,2.87c0-0.5,0-1.01,0-1.51
					c-1.98,3.62-3.97,7.23-5.95,10.85c-4.74,8.64-9.48,17.29-14.22,25.93c-5.75,10.49-11.51,20.98-17.26,31.46
					c-4.95,9.03-9.91,18.07-14.86,27.1c-2.41,4.39-4.96,8.72-7.23,13.18c-0.03,0.06-0.07,0.13-0.1,0.19
					c-0.93,1.69,1.66,3.21,2.59,1.51c2.84-5.18,5.68-10.35,8.52-15.53c6.34-11.55,12.68-23.11,19.01-34.66
					c6.68-12.18,13.36-24.35,20.04-36.53c3.86-7.04,7.72-14.08,11.59-21.12c0.44-0.81,0.86-1.39,0.47-2.38
					c-0.63-1.62-1.5-3.18-2.24-4.75c-2.71-5.76-5.43-11.53-8.14-17.29c-0.2-0.43-0.4-0.85-0.6-1.28
					C248.12,184.42,245.54,185.94,246.35,187.68L246.35,187.68z"/>
			</g>
			<g>
				<path class="st0" d="M208.29,276.78c-8.17,15.2-16.35,30.4-24.52,45.6c-0.91,1.7,1.67,3.22,2.59,1.51
					c8.17-15.2,16.35-30.4,24.52-45.6C211.8,276.59,209.21,275.08,208.29,276.78L208.29,276.78z"/>
			</g>
			<g>
				<path class="st0" d="M151.73,186.42c-4.08,7.01-8.18,14-12.26,21c-2,3.43-3.99,6.86-5.98,10.3c-1.06,1.84-2.06,3.7-3.26,5.45
					c-2.15,3.14-4.36,6.26-6.22,9.59c-1.45,2.6-3.75,6.5-2.63,9.6c1.67,4.64,7.9,1.66,10.69,0.07c2.01-1.14,4.22-2.75,6.59-2.97
					c2.27-0.21,4.24,1.38,5.88,2.74c1.67,1.37,3.4,2.92,5.55,3.45c2.24,0.55,4.45-0.2,6.21-1.6c3.92-3.12,6.34-8.15,8.68-12.46
					c3.48-6.4,7.37-12.58,10.89-18.96c4.24-7.68,8.33-15.45,12.65-23.09c0.95-1.68-1.64-3.2-2.59-1.51
					c-7.15,12.63-13.85,25.48-21.27,37.96c-2.45,4.12-4.45,8.49-7.25,12.4c-1.1,1.53-2.49,3.41-4.29,4.15
					c-1.88,0.78-3.54-0.17-5.02-1.3c-1.71-1.3-3.26-2.86-5.2-3.81c-2.11-1.03-4.32-1.25-6.56-0.49c-2.36,0.8-4.46,2.2-6.63,3.39
					c-1.45,0.79-3.83,2.03-5.21,1.36c-0.33-0.16-0.29-0.13-0.36-0.55c0.02,0.11-0.02-0.3-0.02-0.54c0.01-0.32,0.03-0.39,0.11-0.77
					c0.35-1.6,1.07-3.1,1.83-4.54c1.75-3.33,3.9-6.45,6.03-9.54c3.41-4.94,6.19-10.33,9.21-15.52c4.33-7.43,8.69-14.85,13.01-22.29
					C155.29,186.26,152.7,184.75,151.73,186.42L151.73,186.42z"/>
			</g>
		</g>
		<g>
			<path class="st0" d="M342.25,151.96c-6.95,0-13.89,0-20.84,0c-15.07,0-30.13,0-45.2,0c-14.65,0-29.3,0-43.95,0
				c-4.51,0-9.02,0-13.53,0c-1.08,0-2.15,0-3.23,0c-0.93,0-1.59,0.31-2.1,1.14c-6.52,10.6-12.74,21.39-19.11,32.08
				c-0.2,0.33-0.39,0.66-0.59,0.98c-0.99,1.66,1.6,3.17,2.59,1.51c5.82-9.77,11.64-19.54,17.46-29.31c0.68-1.14,1.35-2.27,2.03-3.41
				c3.93,0,7.86,0,11.79,0c10.16,0,20.32,0,30.48,0c12.25,0,24.5,0,36.75,0c10.59,0,21.18,0,31.77,0c3.49,0,6.98,0,10.48,0
				c0.89,0,1.82,0.05,2.74,0.08c-0.4,0.81-0.81,1.62-1.21,2.42c-2.16,4.32-4.31,8.63-6.47,12.95c-3.19,6.38-6.38,12.76-9.56,19.15
				c-3.89,7.79-7.78,15.57-11.67,23.36c-4.26,8.53-8.52,17.06-12.78,25.59c-4.3,8.61-8.6,17.22-12.9,25.82
				c-3.99,7.99-7.99,15.99-11.98,23.98c-3.39,6.79-6.78,13.57-10.17,20.36c-2.44,4.88-4.88,9.76-7.32,14.65
				c-1.16,2.31-2.34,4.62-3.47,6.94c-0.05,0.1-0.1,0.2-0.15,0.3c-0.86,1.72,1.73,3.24,2.59,1.51c0.79-1.59,1.58-3.17,2.38-4.76
				c2.16-4.32,4.31-8.63,6.47-12.95c3.19-6.38,6.38-12.76,9.56-19.15c3.89-7.79,7.78-15.57,11.67-23.36
				c4.26-8.53,8.52-17.06,12.78-25.59c4.3-8.61,8.6-17.22,12.9-25.83c3.99-7.99,7.99-15.99,11.98-23.98
				c3.39-6.79,6.78-13.57,10.17-20.36c2.44-4.88,4.88-9.76,7.32-14.65c1.16-2.31,2.34-4.62,3.47-6.94c0.05-0.1,0.1-0.2,0.15-0.3
				C344.05,153.22,343.45,151.96,342.25,151.96z"/>
			<g>
				<path class="st0" d="M340.96,154.22c4.43,9.75,8.86,19.5,13.29,29.25c0.64,1.4,1.27,2.8,1.91,4.21c0-0.5,0-1.01,0-1.51
					c-0.69,1.38-1.37,2.77-2.06,4.15c-1.86,3.74-3.72,7.48-5.57,11.23c-2.76,5.56-5.52,11.12-8.28,16.68
					c-3.37,6.79-6.74,13.58-10.11,20.36c-3.67,7.4-7.35,14.8-11.02,22.19c-3.73,7.51-7.45,15.01-11.18,22.52
					c-3.46,6.96-6.92,13.93-10.37,20.89c-2.94,5.92-5.87,11.83-8.81,17.75c-2.11,4.25-4.22,8.51-6.34,12.76
					c-1,2.01-2.02,4-2.99,6.03c-0.04,0.09-0.09,0.18-0.13,0.27c-0.86,1.72,1.73,3.25,2.59,1.51c1-2.02,2-4.04,3.01-6.05
					c2.65-5.33,5.29-10.66,7.94-15.99c3.8-7.65,7.59-15.3,11.39-22.95c4.4-8.87,8.81-17.74,13.21-26.61
					c4.53-9.12,9.06-18.25,13.59-27.37c4.12-8.3,8.24-16.6,12.36-24.9c3.18-6.41,6.37-12.83,9.55-19.24
					c1.76-3.54,3.51-7.08,5.27-10.61c0.46-0.92,0.95-1.62,0.52-2.69c-1.01-2.5-2.24-4.93-3.36-7.38
					c-3.68-8.11-7.37-16.21-11.05-24.32c-0.25-0.56-0.51-1.12-0.76-1.68C342.75,150.95,340.16,152.47,340.96,154.22L340.96,154.22z"
					/>
			</g>
			<g>
				<path class="st0" d="M305.23,258.09c-10.32,19.94-20.64,39.89-30.96,59.83c-2.93,5.67-5.87,11.33-8.8,17
					c-0.89,1.71,1.7,3.23,2.59,1.51c10.32-19.94,20.64-39.89,30.96-59.83c2.93-5.67,5.87-11.33,8.8-17
					C308.71,257.9,306.12,256.38,305.23,258.09L305.23,258.09z"/>
			</g>
			<g>
				<path class="st0" d="M236.85,153.8c-5.62,10.89-12.14,21.28-18.22,31.91c-0.96,1.68,1.63,3.19,2.59,1.51
					c6.08-10.63,12.6-21.02,18.22-31.91C240.33,153.6,237.74,152.08,236.85,153.8L236.85,153.8z"/>
			</g>
			<g>
				<path class="st0" d="M267.49,153.38c-6.45,11.7-12.93,23.39-19.63,34.95c-0.97,1.67,1.62,3.19,2.59,1.51
					c6.7-11.56,13.19-23.25,19.63-34.95C271.01,153.2,268.42,151.69,267.49,153.38L267.49,153.38z"/>
			</g>
		</g>
	</g>
</g>
<g id="步驟3">
</g>
<g id="步驟4">
</g>
</svg>
