<?xml version="1.0" encoding="utf-8"?>
<!-- Generator: Adobe Illustrator 25.0.0, SVG Export Plug-In . SVG Version: 6.00 Build 0)  -->
<svg version="1.1" xmlns="http://www.w3.org/2000/svg" xmlns:xlink="http://www.w3.org/1999/xlink" x="0px" y="0px"
	 viewBox="0 0 400 400" style="enable-background:new 0 0 400 400;" xml:space="preserve">
<style type="text/css">
	.st0{fill:#81CE96;}
	.st1{fill:#FFFFFF;}
	.st2{fill:#EBEBEB;}
	.st3{fill:#E6E6E6;}
	.st4{fill:none;stroke:#81CE96;stroke-miterlimit:10;}
</style>
<g id="步驟1">
	<g>
		<g>
			<path class="st0" d="M158.33,151.57c-5.15,14.4-6.33,29.87-7.86,45.09c-2.85,28.32-7.5,57.61-23.53,81.13
				c-5.62,8.25-12.55,15.64-17.18,24.48c-5.12,9.78-5.47,18.98,0.93,28.38c6.03,8.86,14.58,16.75,25.79,16.99
				c6.51,0.14,12.89-1.61,19.27-2.92c22.07-4.53,44.76-3.86,67.12-2.47c9.87,0.61,17.59,1.77,27.25,3.92
				c8.83,1.97,16.93,1.33,24.57-3.91c6.33-4.34,10.81-11.11,14.28-17.82c7.18-13.87,10.79-29.59,13.28-44.91
				c3.09-19.1,6.11-40.64,2.77-59.82c-3.47-19.9-0.57-41.26-9.56-59.98c-4.18-8.71-9.57-16.84-15.98-24.07
				c-11.74-13.26-29.77-27.21-47.45-30.75C201.57,98.79,168.26,123.78,158.33,151.57z"/>
		</g>
		<g>
			<path class="st1" d="M140.18,223.72c-12.68-17.3-32.02-28.29-43.04-47.02c-3.69-6.27-8.19-12.83-15.71-14.63
				c-7.73-1.84-16.84,5.19-18.66,12.43c-1.65,6.57,0.03,13.48,1.97,19.98c4.11,13.76,9.43,27.2,16.32,39.81
				c5.94,10.88,13.73,25.28,23.92,32.62c5.64,4.06,10.79,8.74,16.38,12.86c7.98,5.89,19.01,12.27,28.45,15.39
				c5.43,1.8,10.84,2.3,16.13,4.56c-5.13-11.58-15.06-19.81-19.62-31.26c-0.77-1.94-1.81-3.75-3.07-5.36
				c0.85-0.27,10.95-1.39,10.98-0.8C153.39,247.3,148.24,234.72,140.18,223.72z"/>
			<path class="st2" d="M153.69,259.96c-1.34,2.7-5.03,2.72-10.88,2.89c8.15,11.47,15.16,23.74,20.89,36.59
				c-21.27-7.7-43.71-16.25-57.49-34.18c6.23,4.03,15.22,0.23,18.86-6.23s3.14-14.47,1.42-21.69c-1.41-5.91-3.56-11.65-6.39-17.03
				c-2.84-5.41-6.34-10.52-9.31-15.86c-3.39-6.12-5.5-14.21-9.61-19.84c4,5.48,9.49,9.65,14.9,13.74
				c11.87,8.97,22.42,20.05,29.62,33.15c3.64,6.61,6.59,13.84,8.05,21.26C154.45,256.25,154.41,258.5,153.69,259.96z"/>
		</g>
		<g>
			<path class="st1" d="M178.23,166.88c-12.95-9.67-14.95-23.47-15.19-38.58c-0.23-14.42,0.4-29.28-1.48-43.48
				c-1.56-11.84-0.74-25.16-6.46-35.81c-3.9-7.26-7.79-15.67-16.87-16.98c-7.57-1.09-15.45,2.38-19.82,8.63
				c-17.81,25.46,2.2,55.17,1.42,82.97c-0.35,12.28-1.64,24.55-1.64,36.84c-0.11,12.74,1.07,25.74,5.22,37.85
				c3.93,11.48,11.3,16.5,17.94,26.05c7.7,11.07,11.82,25.42,11.77,38.83c0-0.03,19.3,1.07,20.89,0.88
				c0.65-3.83,1.31-7.54,1.37-11.44c0.12-8.05-0.11-16.1-0.23-24.15c-0.26-15.81-0.07-31.76,0.04-47.54
				c2.3,0.74,17.74,8.96,17.93,10.53c-0.66-5.31-1.25-12.36-4.39-16.86C186.13,170.92,181.67,169.46,178.23,166.88z"/>
			<path class="st2" d="M120.22,187.21c2.35,8.23,5.43,16.45,10.35,23.52c5.19,7.44,12.04,11.88,16.71,20.05
				c5.11,8.93,5.88,17.04,7.49,26.83c0.86,5.23-0.55,3.98,4.34,4.87c4.52,0.83,14.67,2.11,17-1.85c1.23-2.1-0.16-9.56-0.15-12.13
				c0.02-4.59,0.05-9.18,0.06-13.77c0.04-18.38-0.18-36.81-2.44-55.07c6.96,1.55,13.46,5.09,18.53,10.09
				c0.42-7.92-2.84-15.96-8.65-21.36c-5.93-5.5-14.66-8.83-17.34-16.47c3.59,10.24,6.65,51.48-11.44,50.83
				c-23.61-0.86-20.89-33.26-36.47-43.31C117.53,168.25,117.79,178.69,120.22,187.21z"/>
		</g>
		<g>
			<path class="st1" d="M275.98,129.73c-4.52,14.24-8.01,29.24-7.31,44.28c0.48,10.29,4.6,22.94,10.98,31.07
				c2.88-1.79,5.03-5.4,7.55-7.74c3.73-3.48,7.53-6.29,10.33-10.69c6.28-9.85,9-23.92,10.39-35.42c2.82-23.25,2.77-52.71-5.81-74.73
				c-0.9-2.32-8.47-16.48-9.03-6.58c-0.77,13.46-2.26,24.18-8.67,36.35C280.53,113.65,278.51,121.75,275.98,129.73z"/>
			<path class="st1" d="M242.57,169.55c-0.5,9.31,0.63,19.2,2.56,28.23c2.28,10.67,9.22,19.19,20.22,21.45
				c0.78-9.47,0.8-19.54-3.95-28c-2.52-4.49-5.98-8.05-9.1-12.07c-3.21-4.14-5.72-8.69-9.52-12.45
				C242.69,167.65,242.62,168.6,242.57,169.55z"/>
			<path class="st1" d="M247.93,220.14c-0.52-0.32-1.03-0.52-1.55-0.57c-4.12-0.37-2.82,11.4-2.25,13.33
				c0.8,2.71,6.62,14.7,10.39,14.02c4.22-0.76,2.14-10.51,1.37-13.26C255.08,230.79,251.6,222.42,247.93,220.14z"/>
			<path class="st1" d="M303.82,194.35c6.29-3.4,9.59-10.77,16.04-13.72c-0.58,0.27,0.96,5.81,1.02,6.64
				c0.47,7.68-3.7,15.05-8.67,20.75c-6.42,7.34-16.4,13.21-26.42,12.68C285.79,209.41,294.2,199.55,303.82,194.35z"/>
			<path class="st1" d="M295.43,230.93c0.29-0.26,0.57-0.52,0.83-0.8c-0.77,0.81-0.49,8.46-1.06,10.22
				c-1.11,3.42-3.05,7.27-5.96,9.53c-1.88,1.46-11.36,3.61-13.26,1.77c-4.22-4.1,2.94-11.78,6.08-13.74
				C286.31,235.24,291.63,234.33,295.43,230.93z"/>
			<path class="st2" d="M272.11,164.87c-1.62-2.16-2.96-4.34-3.92-6.09c0.21,7.56,0.93,15.11,2.15,22.57
				c0.61,3.75,1.22,7.94,3.17,11.26c1.97,3.34,3.44,6.69,5.95,9.75c0.21,0.26,0.46,0.54,0.8,0.55c0.25,0.01,0.49-0.13,0.7-0.27
				c3.28-2.2,6.17-5.73,8.96-8.54c3.24-3.26,6.12-6.91,8.51-10.83c2.77-4.54,5.1-9.41,6.24-14.62c1.08-4.95,1.37-10.29,2.9-14.99
				c-1.42,4.39-5.08,8.08-7.75,11.71c-2.83,3.85-6.98,7.83-11.74,8.99C282.13,175.8,276.22,170.35,272.11,164.87z"/>
			<path class="st2" d="M265.42,218.49c-5.85-3.23-11.85-6.58-16.06-11.77c-4.28-5.27-6.34-12.07-6.95-18.83
				c-0.47-5.2-0.99-12.5,0.83-17.41c1.69,2.1,2.08,5.49,2.82,8.1c1.37,4.86,2.99,9.65,4.92,14.32c1.88,4.53,4.03,8.96,6.45,13.23
				C259.17,209.23,262.27,216.76,265.42,218.49z"/>
			<path class="st2" d="M243.88,218.21c0.36,1.91-0.61,4.67-0.51,6.72c0.3,6.46,1.95,15.66,7.03,20.54
				c4.47,4.29,7.01,0.13,4.31-4.39C250.36,233.79,245.45,226.54,243.88,218.21z"/>
			<path class="st2" d="M277.33,251.54c1.14,3.55,9.41-0.94,10.89-1.93c4.13-2.76,7.02-6.97,7.77-11.91
				c0.39-2.59-1.08-5.25-0.21-7.81c-1.33,3.92-3.96,8.99-7.02,11.86c-2.73,2.56-5.88,4.51-8.72,6.9c-0.8,0.68-3.06,1.43-2.77,2.69
				C277.29,251.41,277.31,251.48,277.33,251.54z"/>
			<path class="st2" d="M304.73,202.78c-6.86,6.32-15.13,11.51-19.58,19.99c0.92-1.75,8.17-2.63,10.01-3.15
				c2.89-0.81,4.85-1.55,7.08-3.38c4.68-3.83,10.45-7.31,13.64-12.6c3.47-5.75,5.15-15.38,3.32-21.82
				c-0.52,3.35-2.37,6.31-4.22,9.09C312.1,195.26,308.57,199.24,304.73,202.78z"/>
		</g>
		<g>
			<g>
				<polygon class="st1" points="175.3,179.65 175.3,263.2 142.65,263.2 213.78,371.32 276.53,262.92 237.99,262.92 237.99,212.88 
					218.84,202.71 218.84,227.52 195.76,216.82 195.76,193.17 				"/>
				<polygon class="st1" points="195.38,149.8 195.38,177.45 175.3,165.61 175.3,137.15 				"/>
				<polygon class="st1" points="219.61,185.18 219.61,143.98 238.3,154.33 238.3,194.7 				"/>
				<polygon class="st2" points="213.78,371.32 213.78,224.13 218.84,227.52 218.84,202.71 237.99,212.88 237.99,262.92 
					276.53,262.92 				"/>
			</g>
		</g>
	</g>
	<g>
		<g>
			<g>
				<path class="st0" d="M176.05,160.71c-8.31-6-10.72-16.99-11.51-26.62c-1.04-12.58-0.36-25.27-0.46-37.88
					c-0.1-12.91-0.82-25.96-4.23-38.47c-2.36-8.67-6.07-17.96-13.47-23.55c-3.59-2.71-7.95-4.15-12.45-4.19
					c-4.63-0.04-8.83,1.61-12.42,4.5c-6.88,5.55-11.13,14.79-12.47,23.4c-1.9,12.19,2.1,23.84,5.42,35.4
					c3.63,12.63,5.21,25.65,4.41,38.79c-0.37,6.18-1.18,12.33-1.59,18.52c-0.39,5.93-0.59,11.89-0.39,17.83
					c0.39,11.82,2.38,23.59,7.07,34.5c1.19,2.77,2.56,5.46,4.09,8.07c0.97,1.67,3.57,0.16,2.59-1.51
					c-12.11-20.75-11.79-45.15-9.58-68.32c0.59-6.25,1.14-12.45,0.99-18.74c-0.16-6.57-0.88-13.14-2.14-19.6
					c-2.26-11.57-7.3-22.6-8.25-34.42c-0.77-9.61,1.71-19.45,7.56-27.2c2.53-3.34,5.88-6.33,9.96-7.57
					c4.06-1.23,8.77-0.72,12.54,1.18c7.82,3.93,11.87,12.77,14.35,20.72c3.75,12.01,4.74,24.65,4.96,37.17
					c0.22,12.64-0.35,25.3,0.27,37.93c0.48,9.61,1.99,20.03,8.11,27.81c1.47,1.87,3.19,3.47,5.11,4.86
					C176.11,164.43,177.6,161.83,176.05,160.71L176.05,160.71z"/>
			</g>
			<g>
				<path class="st3" d="M144.67,111.72c1.44,20.75-1.22,41.49-0.56,62.25c0.33,10.3,1.61,20.5,4.28,30.46
					c2.71,10.08,5.69,20.11,9.46,29.85c2.09,5.39,4.41,10.7,7.02,15.86c2.38,4.72,4.87,9.32,8.36,13.32
					c1.27,1.46,3.38-0.67,2.12-2.12c-3.02-3.47-5.22-7.46-7.29-11.54c-2.31-4.54-4.44-9.16-6.35-13.88
					c-3.85-9.54-6.89-19.38-9.61-29.3c-1.35-4.92-2.59-9.85-3.4-14.9c-0.8-5.02-1.25-10.09-1.49-15.16
					c-0.47-10.14-0.06-20.3,0.35-30.44c0.46-11.47,0.91-22.95,0.11-34.42C147.53,109.8,144.53,109.79,144.67,111.72L144.67,111.72z"
					/>
			</g>
			<g>
				<path class="st0" d="M186.92,174.25c2.61,4.85,4.07,10.24,4.26,15.75c0.07,1.93,3.07,1.93,3,0c-0.21-6.04-1.81-11.94-4.67-17.26
					C188.59,171.04,186,172.55,186.92,174.25L186.92,174.25z"/>
			</g>
		</g>
		<g>
			<g>
				<path class="st0" d="M154.92,260.38c1.19-24.91-16.55-44.8-34.32-59.87c-9.01-7.64-17.29-15.92-23.57-25.99
					c-2.72-4.37-5.61-8.98-10.06-11.78c-4.37-2.75-9.73-3.25-14.49-1.24c-4.59,1.93-8.68,5.93-10.76,10.47
					c-2.28,4.97-1.96,10.52-0.9,15.76c1.02,5.09,2.56,10.15,4.16,15.08c1.55,4.75,3.34,9.41,5.34,13.99
					c8.15,18.69,19.93,35.96,34.53,50.22c14.41,14.08,31.89,25.36,51.36,30.94c2.36,0.68,4.75,1.26,7.16,1.77
					c1.88,0.4,2.69-2.5,0.8-2.89c-19.05-4-36.49-13.61-51.11-26.32c-14.79-12.87-26.9-28.76-35.85-46.18
					c-4.37-8.51-7.98-17.41-10.65-26.6c-1.44-4.94-3.08-9.99-3.48-15.15c-0.19-2.44-0.1-4.91,0.59-7.28
					c0.73-2.51,2.17-4.72,3.93-6.63c3.16-3.44,7.65-5.97,12.46-5.34c5.16,0.68,8.88,4.49,11.71,8.58c3.05,4.4,5.72,8.99,9.08,13.18
					c3.52,4.39,7.44,8.45,11.57,12.26c4.2,3.87,8.67,7.42,12.87,11.3c4.27,3.94,8.34,8.11,12.01,12.62
					c7.2,8.87,12.8,19.45,14.31,30.89c0.36,2.73,0.45,5.49,0.32,8.23C151.83,262.31,154.83,262.31,154.92,260.38L154.92,260.38z"/>
			</g>
			<g>
				<path class="st3" d="M82.99,197.88c5.76,13.67,13.05,26.66,21.78,38.66c8.76,12.04,18.86,23.1,30.13,32.84
					c6.31,5.46,12.97,10.51,19.94,15.1c1.62,1.07,3.12-1.53,1.51-2.59c-12.16-8.03-23.36-17.47-33.36-28.07
					c-9.96-10.55-18.71-22.21-26.05-34.72c-4.16-7.09-7.86-14.45-11.06-22.02c-0.32-0.75-0.99-1.27-1.85-1.05
					C83.33,196.22,82.68,197.13,82.99,197.88L82.99,197.88z"/>
			</g>
		</g>
		<g>
			<path class="st0" d="M261.74,189.1c-2.59-3.94-5.62-7.61-8.48-11.35c-2.96-3.89-5.92-7.77-8.89-11.66
				c-1.14-1.49-3.68-0.14-2.59,1.51c0.01,0.01,0.02,0.02,0.02,0.03c0,0.02,0.01,0.04,0.01,0.07c0.06,0.28,0.02,0.06,0.05,0.31
				c0.05,0.58,0.02,1.17,0,1.75c-0.06,1.35-0.21,2.69-0.37,4.02c-0.3,2.64-0.6,5.15-0.49,7.81c0.35,8.33,1.84,16.62,6.06,23.92
				c3.54,6.13,8.82,11.32,15.53,13.81c1.19,0.44,3.02,1.39,4,0.11c0.48-0.63,0.55-1.5,0.64-2.27c0.29-2.32,0.32-4.68,0.35-7.02
				C267.69,202.68,265.8,195.44,261.74,189.1z M249.22,203.21c-3.79-6.92-4.98-14.74-5.24-22.54c-0.08-2.56,0.33-5.06,0.61-7.61
				c0.06-0.53,0.11-1.06,0.16-1.58c1.98,2.59,3.95,5.19,5.93,7.78c2.85,3.75,5.89,7.41,8.48,11.35c3.32,5.19,5.43,11.37,5.45,17.57
				c0.01,2.27-0.03,4.54-0.17,6.8c-0.03,0.55-0.08,1.21-0.14,1.76c-0.42-0.14-0.83-0.28-1.24-0.44
				C256.97,213.93,252.3,208.84,249.22,203.21z M264.1,217.8c-0.02,0.05-0.05,0.12-0.04,0.14
				C264.04,217.9,264.06,217.85,264.1,217.8z"/>
			<path class="st0" d="M245.43,217.2c-0.86-0.69-2.17-0.51-2.51,0.66c-1.93,6.73-1.34,13.96,1.42,20.37
				c1.36,3.15,3.26,6.07,5.64,8.54c1.17,1.22,2.66,2.39,4.45,2.19c1.46-0.16,2.63-1.16,2.93-2.53c0.12-0.19,0.2-0.42,0.23-0.69
				C258.56,234.98,253.87,223.95,245.43,217.2z M251.85,244.37c-0.91-0.98-1.73-2.02-2.47-3.14c-1.44-2.17-2.57-4.54-3.34-7.03
				c-1.32-4.28-1.6-8.79-0.77-13.16c6.48,6.18,9.97,15.05,9.37,24.03c-0.11,0.19-0.18,0.42-0.18,0.69
				C254.43,246.76,252.02,244.56,251.85,244.37z"/>
			<path class="st0" d="M321.29,179.41c-0.44-0.81-1.72-1.02-2.36-0.3c-5.2,5.86-11.91,9.93-18.07,14.65
				c-5.14,3.94-10.48,8.39-13.41,14.31c-1.56,3.16-2.35,6.53-2.77,10.01c-0.16,1.48-0.26,2.97-0.31,4.46
				c-0.04,1.21,1.29,1.77,2.26,1.3c3.94-1.94,8.47-2.02,12.53-3.63c3.72-1.47,7.11-4.08,10.03-6.77
				c5.81-5.33,10.08-12.27,12.3-19.83C322.83,189,323.69,183.83,321.29,179.41z M318.69,192.44c-1.01,3.55-2.49,6.95-4.41,10.1
				c-1.88,3.09-4.17,5.9-6.8,8.38c-2.67,2.52-5.86,5.11-9.31,6.46c-3.47,1.35-7.18,1.72-10.68,2.91c0.05-0.74,0.12-1.47,0.2-2.21
				c0.7-5.84,3.04-10.83,7.11-15.07c5-5.21,11.09-9.13,16.84-13.43c2.76-2.06,5.43-4.25,7.85-6.7
				C320.3,185.98,319.55,189.42,318.69,192.44z"/>
			<path class="st0" d="M297.72,231.94c-0.03-0.58-0.07-1.17-0.08-1.75c0-0.2,0.01-0.4,0-0.6c0.52-1.37-1.36-2.67-2.49-1.55
				c-3.79,3.76-8.73,5.99-13.16,8.86c-2.6,1.71-5.34,3.7-6.7,6.6c-1.3,2.77-1.39,5.91-1.56,8.92c-0.05,0.87,0.73,1.42,1.5,1.5
				c3.68,0.4,7.52,0.15,10.99-1.23c3.6-1.43,6.46-3.93,8.52-7.2c1.76-2.79,3.29-6.31,3.19-9.66
				C297.89,234.53,297.79,233.23,297.72,231.94z M292.93,242.62c-1.69,3.17-4.15,5.78-7.51,7.18c-2.73,1.13-5.7,1.42-8.62,1.25
				c0.1-2.04,0.25-4.18,1.08-6.03c1.1-2.45,3.45-4.09,5.62-5.52c3.72-2.42,7.74-4.42,11.24-7.14c0.04,0.71,0.09,1.41,0.12,2.12
				c0.03,0.58,0.06,1.16,0.07,1.74c0,0.16,0,0.32,0,0.48c0,0.11,0,0.15,0.01,0.18c-0.02,0.06-0.03,0.14-0.06,0.25
				C294.45,239.04,293.86,240.87,292.93,242.62z"/>
			<path class="st0" d="M310.03,114.56c-0.46-7.57-1.45-15.08-2.75-22.55c-1.05-6.07-2.27-12.21-4.38-18.02
				c-1.24-3.4-3.96-10.5-8.87-8.84c-2.37,0.8-2.79,3.71-2.97,5.88c-0.22,2.71,0.21,5.42,0.27,8.12c0.07,3.04-0.66,5.98-1.4,8.9
				c-0.73,2.87-1.6,5.71-2.56,8.51c-3.92,11.44-9.41,22.27-13.72,33.56c-4.14,10.86-6.83,22.12-6.83,33.79
				c0,11.31,2.28,22.62,6.68,33.04c1.06,2.51,2.24,4.97,3.54,7.37c0.37,0.69,1.03,0.85,1.6,0.68c0.15-0.02,0.3-0.06,0.45-0.14
				c9.01-4.38,16.3-11.77,21.28-20.4c5.67-9.84,8.07-21.18,9.16-32.38C310.75,139.69,310.78,127,310.03,114.56z M307.16,142.99
				c-0.5,11.37-1.85,23.03-6.24,33.63c-3.6,8.7-9.53,16.69-17.28,22.11c-1.49,1.04-3.04,1.98-4.65,2.83
				c-9.89-19.09-11.68-41.42-5.43-61.96c3.33-10.95,8.34-21.26,12.71-31.81c2.23-5.38,4.3-10.84,5.88-16.45
				c0.78-2.75,1.51-5.56,1.94-8.38c0.42-2.71,0.14-5.41-0.02-8.12c-0.07-1.26-0.13-2.54-0.02-3.8c0.07-0.81,0.27-2.65,0.83-3.02
				c0.31-0.21,0.79-0.1,1.12,0.1c0.54,0.33,1.14,0.96,1.56,1.6c0.65,0.97,1.18,2.02,1.65,3.09c2.36,5.37,3.55,11.33,4.64,17.07
				C307.17,107.4,307.94,125.19,307.16,142.99z"/>
			<g>
				<path class="st0" d="M287.52,146.62c-1.17,15.57-3.49,31.04-6.96,46.27c-3.45,15.13-8,30-13.62,44.46
					c-3.19,8.22-6.74,16.29-10.62,24.2c-0.85,1.73,1.74,3.25,2.59,1.51c6.95-14.19,12.85-28.89,17.63-43.95
					c4.76-15.01,8.4-30.37,10.87-45.92c1.4-8.81,2.44-17.68,3.11-26.58C290.66,144.7,287.66,144.71,287.52,146.62L287.52,146.62z"/>
			</g>
		</g>
		<g>
			<path class="st0" d="M276.53,261.42c-11.26,0-22.52,0-33.78,0c-1.09,0-2.18,0-3.27,0c0-5.14,0-10.28,0-15.42
				c0-8.99,0-17.97,0-26.96c0-2.05,0-4.11,0-6.16c0-0.51-0.28-1.05-0.74-1.3c-5.58-2.97-11.16-5.93-16.75-8.9
				c-0.8-0.42-1.6-0.85-2.4-1.27c-0.99-0.53-2.26,0.12-2.26,1.3c0,7.23,0,14.47,0,21.7c0,0.26,0,0.51,0,0.77
				c-5.97-2.77-11.94-5.54-17.92-8.3c-0.72-0.34-1.45-0.67-2.17-1.01c0-6.79,0-13.59,0-20.38c0-0.85,0.21-2.08-0.13-2.9
				c-0.34-0.8-1.6-1.37-2.29-1.82c-3.51-2.32-7.01-4.63-10.52-6.95c-2.76-1.82-5.51-3.64-8.27-5.46c-0.63-0.42-1.24-0.27-1.66,0.12
				c-0.35,0.24-0.6,0.63-0.6,1.18c0,9.42,0,18.84,0,28.26c0,15,0,30.01,0,45.01c0,2.93,0,5.85,0,8.78c-9.04,0-18.08,0-27.12,0
				c-1.34,0-2.68,0-4.02,0c-1.09,0-1.93,1.29-1.3,2.26c2.37,3.6,4.73,7.2,7.1,10.79c5.66,8.6,11.32,17.2,16.98,25.81
				c6.84,10.4,13.68,20.8,20.53,31.2c5.93,9.02,11.86,18.04,17.8,27.05c2.86,4.35,5.64,8.78,8.6,13.07
				c0.04,0.06,0.08,0.13,0.13,0.19c0.61,0.92,2,1.02,2.59,0c2.09-3.6,4.17-7.2,6.26-10.81c5.01-8.65,10.01-17.3,15.02-25.94
				c6.03-10.42,12.07-20.84,18.1-31.26c5.22-9.01,10.43-18.02,15.65-27.02c2.54-4.38,5.25-8.71,7.63-13.18
				c0.03-0.06,0.07-0.12,0.11-0.18C278.4,262.7,277.67,261.42,276.53,261.42z M268.98,272.97c-5.01,8.65-10.01,17.3-15.02,25.94
				c-6.03,10.42-12.07,20.84-18.1,31.26c-5.22,9.01-10.43,18.02-15.65,27.02c-1.73,2.98-3.45,5.96-5.18,8.94
				c-0.43,0.74-0.93,1.49-1.4,2.26c-1.89-2.88-3.78-5.75-5.68-8.63c-5.66-8.6-11.32-17.2-16.98-25.81
				c-6.84-10.4-13.68-20.8-20.53-31.2c-5.93-9.02-11.86-18.04-17.8-27.05c-1.94-2.95-3.88-5.9-5.82-8.85
				c-0.45-0.68-0.88-1.43-1.33-2.15c8.58,0,17.17,0,25.75,0c1.34,0,2.68,0,4.02,0c0.81,0,1.5-0.69,1.5-1.5c0-9.42,0-18.84,0-28.26
				c0-15,0-30.01,0-45.01c0-2.5,0-4.99,0-7.49c5.2,3.44,10.4,6.87,15.6,10.31c0.62,0.41,1.24,0.82,1.86,1.23c0,6.62,0,13.25,0,19.87
				c0,0.99,0,1.98,0,2.98c0,0.49,0.28,1.08,0.74,1.3c6.72,3.12,13.45,6.23,20.17,9.35c0.97,0.45,1.94,0.9,2.91,1.35
				c1,0.46,2.26-0.08,2.26-1.3c0-7.23,0-14.47,0-21.7c0-0.21,0-0.41,0-0.62c4.83,2.57,9.66,5.13,14.49,7.7
				c0.55,0.29,1.1,0.59,1.66,0.88c0,5.34,0,10.68,0,16.02c0,8.99,0,17.97,0,26.96c0,2.05,0,4.11,0,6.16c0,0.81,0.69,1.5,1.5,1.5
				c11.26,0,22.52,0,33.78,0c0.72,0,1.44,0,2.17,0C272.28,267.27,270.63,270.12,268.98,272.97z"/>
			<path class="st0" d="M196.36,148.67c-0.07-0.06-0.14-0.12-0.22-0.17c-5.86-3.69-11.73-7.38-17.59-11.07
				c-0.83-0.52-1.66-1.05-2.49-1.57c-0.97-0.61-2.26,0.19-2.26,1.3c0,7.66,0,15.33,0,22.99c0,1.54,0,3.09,0,4.63
				c0,0.97,0.09,1.71,1.01,2.29c3.28,2.05,6.66,3.93,9.99,5.89c3.28,1.93,6.55,3.86,9.83,5.79c0.98,0.58,2.26-0.16,2.26-1.3
				c0-8.08,0-16.15,0-24.23c0-1.14,0-2.28,0-3.42C196.88,149.29,196.67,148.91,196.36,148.67z M178.57,165.8
				c-0.59-0.35-1.18-0.7-1.78-1.05c0-8,0-16.01,0-24.01c0-0.29,0-0.58,0-0.88c5.11,3.22,10.22,6.44,15.33,9.65
				c0.58,0.37,1.17,0.74,1.75,1.1c0,7.8,0,15.6,0,23.4c0,0.27,0,0.53,0,0.8C188.78,171.82,183.67,168.81,178.57,165.8z"/>
			<path class="st0" d="M239.06,153.04c-5.45-3.02-10.9-6.04-16.36-9.06c-0.78-0.43-1.56-0.86-2.33-1.29
				c-0.99-0.55-2.26,0.14-2.26,1.3c0,12.01,0,24.01,0,36.02c0,1.72,0,3.44,0,5.16c-0.06,0.5,0.15,1.01,0.74,1.31
				c6.23,3.17,12.46,6.35,18.69,9.52c1,0.51,2.26-0.11,2.26-1.3c0-11.81,0-23.63,0-35.44c0-1.64,0-3.28,0-4.92
				C239.8,153.81,239.52,153.29,239.06,153.04z M235.21,154.34c0.53,0.29,1.06,0.59,1.59,0.88c0,11.52,0,23.04,0,34.56
				c0,0.83,0,1.65,0,2.48c-5.23-2.66-10.46-5.33-15.69-7.99c0-11.7,0-23.4,0-35.11c0-0.88,0-1.76,0-2.63
				C225.81,149.13,230.51,151.73,235.21,154.34z"/>
		</g>
		<g>
			<g>
				<path class="st0" d="M192.34,339.69c-9.76-2.32-19.6-0.54-29.17,1.81c-9.17,2.25-18.81,5.33-28.37,4.3
					c-7.63-0.82-14.4-4.89-19.28-10.72c-2.51-3-4.52-6.47-6.04-10.07c-1.77-4.21-2.71-8.4-1.89-12.96c1-5.59,3.81-10.3,6.66-15.12
					c3-5.08,6.14-10.09,10.02-14.55c1.26-1.45-0.85-3.58-2.12-2.12c-3.56,4.08-6.55,8.59-9.34,13.21c-2.65,4.4-5.47,8.79-7.08,13.71
					c-1.56,4.76-2.07,10-0.53,14.84c1.26,3.95,3.01,7.79,5.29,11.26c4.37,6.68,10.7,12.01,18.4,14.35
					c9.28,2.82,19.2,0.68,28.36-1.56c11.2-2.74,22.73-6.23,34.29-3.48C193.42,343.03,194.22,340.14,192.34,339.69L192.34,339.69z"/>
			</g>
			<g>
				<path class="st0" d="M302.9,216.19c2.53,11.4,1.79,23.36,1.02,34.92c-0.87,13.02-3.05,25.79-5.77,38.54
					c-2.46,11.56-5.55,23.07-11.07,33.59c-4.9,9.34-12.13,19.54-22.64,22.94c-2.76,0.89-5.65,1.22-8.53,0.85
					c-2.98-0.38-5.86-1.39-8.68-2.4c-5.65-2.02-11.45-4.24-17.52-2.82c-1.88,0.44-1.08,3.33,0.8,2.89
					c5.46-1.28,10.86,1.01,15.93,2.82c5.22,1.86,10.47,3.29,16.03,2.25c11.1-2.07,19.34-11.7,24.88-20.89
					c6.2-10.29,9.95-21.87,12.62-33.52c2.98-12.97,5.53-26.16,6.61-39.44c1.08-13.36,2.14-27.34-0.79-40.53
					C305.38,213.51,302.49,214.31,302.9,216.19L302.9,216.19z"/>
			</g>
			<g>
				<path class="st0" d="M275.99,128.65c-11.56-11.49-26.12-20.41-42.23-23.63c-8.47-1.69-17.22-1.84-25.67,0.03
					c-8.54,1.89-16.32,5.93-23.37,11.04c-7.95,5.77-14.93,12.69-21.7,19.77c-1.33,1.4,0.78,3.52,2.12,2.12
					c11.42-11.96,24.09-24.47,40.41-29.19c15.7-4.54,32.68-1.38,46.95,6.11c7.9,4.15,15.05,9.57,21.37,15.86
					C275.24,132.14,277.36,130.02,275.99,128.65L275.99,128.65z"/>
			</g>
			<g>
				<path class="st0" d="M299.48,181.99c1.1,3.32,1.49,6.77,1.18,10.25c-0.07,0.81,0.74,1.5,1.5,1.5c0.87,0,1.43-0.69,1.5-1.5
					c0.33-3.72-0.11-7.51-1.29-11.05c-0.26-0.77-1.04-1.27-1.85-1.05C299.78,180.36,299.23,181.22,299.48,181.99L299.48,181.99z"/>
			</g>
		</g>
	</g>
</g>
<g id="步驟2">
</g>
<g id="步驟3">
</g>
<g id="步驟4">
</g>
</svg>
