<?xml version="1.0" encoding="utf-8"?>
<!-- Generator: Adobe Illustrator 25.0.0, SVG Export Plug-In . SVG Version: 6.00 Build 0)  -->
<svg version="1.1" xmlns="http://www.w3.org/2000/svg" xmlns:xlink="http://www.w3.org/1999/xlink" x="0px" y="0px"
	 viewBox="0 0 400 400" style="enable-background:new 0 0 400 400;" xml:space="preserve">
<style type="text/css">
	.st0{fill:#81CE96;}
	.st1{fill:#FFFFFF;}
	.st2{fill:#EBEBEB;}
	.st3{fill:#E6E6E6;}
	.st4{fill:none;stroke:#81CE96;stroke-miterlimit:10;}
</style>
<g id="步驟1">
</g>
<g id="步驟2">
</g>
<g id="步驟3">
	<g>
		<g>
			<path class="st0" d="M195.67,132.26c-5.13,0-10.26,0-15.4,0c-5.03,0-10.94-0.88-15.87-0.02c-6.77,1.18-2.94,7.45-4.81,11.79
				c-1.7,3.95-6.19,0.13-8.06-1.53c-2.89-2.58-5.51-7.19-8.63-9.23c-2.91-1.9-7.66-1.01-11.25-1.01c-4.36,0-8.72,0-13.09,0
				c-6.36,0-11.52-5.16-11.52-11.52V70.99c0-6.36,5.16-11.52,11.52-11.52h77.09c6.36,0,11.52,5.16,11.52,11.52v49.75
				C207.19,127.1,202.03,132.26,195.67,132.26z"/>
		</g>
		<g>
			<path class="st1" d="M151.06,347.21c8.76-3.44,18.01-5.63,27.39-6.48c10.33-0.94,19.29,4.54,28.01,9.24
				c6.91,3.72,16.98,6.75,24.79,7.37c0.67-7.32-5.5-16.38-9.07-22.27c-5.6-9.23-12.73-17.63-20.75-24.85
				c-9.88-8.89-20.72-16.6-31.17-24.79c-6.11-4.79-12.44-8.26-18.5-13c1.92,1.57-0.38,10.69-0.53,12.82
				c-0.85,12.25-0.54,24.54-0.31,36.81C150.95,324.37,153.68,346.19,151.06,347.21z"/>
			<path class="st1" d="M197.91,261.98c0.2,0.99,0.34,1.93,0.36,2.83c0.06,2.05-1.14,4.29-3.16,4.7
				c-6.84,1.37-19.29-7.17-25.24-9.79c-4.89-2.15-12.62-4.48-16.37-8.53c-3.87-4.19-2.67-11.66-2.6-16.82
				c0.28-20.36-0.11-40.72-0.08-61.08c0.01-4.19,0.19-8.8,3.02-11.9c2.3-2.52,10.91-5.96,14.25-5.09
				c1.31,0.34,4.06,13.21,4.81,15.46c2.39,7.24,4.43,14.62,6.27,22.02c3.31,13.34,7.69,26.38,11.38,39.61
				c1.53,5.47,2.78,11.01,3.88,16.58C195.16,253.57,197.09,258.06,197.91,261.98z"/>
			<path class="st1" d="M192.68,158.39c0,4.37,3.79,10.8,5.25,14.97c1.67,4.75,3.25,9.41,4.48,14.28c0.36-0.29,0.73-0.59,1.11-0.86
				c3.54-2.53,8.38-3.02,12.44-1.44c7.1,2.75,10.74,11.21,14.13,17.43c-1.32-2.42,6.09-1.85,6.76-1.68c2.89,0.75,5.51,2.17,7.8,4.07
				c5.76,4.78,7.78,11.89,12.07,17.64c3.66-3.7,2.17-13.47,2.19-18.33c0.02-4.69-0.15-9.39-0.12-14.08
				c0.06-6.51,1.26-13.32,0.2-19.77c-2.71-16.51-24.91-14.26-37.16-13.58c-6.74,0.38-13.5,0.76-20.24,0.03
				C199.14,156.8,194.93,157.35,192.68,158.39z"/>
			<path class="st2" d="M203.4,186.99c4.02-2.54,9.43-2.11,13.6,0.18c4.17,2.3,7.24,6.19,9.55,10.35c0.73,1.31,1.45,2.71,2.71,3.52
				c1.41,0.91,3.2,0.88,4.88,1.03c6.19,0.54,12.07,4,15.55,9.14c0.77-11.08,0.56-22.22-0.63-33.26c-0.21-1.94-0.47-3.94-1.46-5.63
				c-2.31-3.94-7.58-4.77-12.14-5.01c-9.88-0.54-19.8-0.35-29.66,0.55c-4.5,0.41-8.53-0.35-7.58,4.94
				C199.08,177.52,201.76,182.48,203.4,186.99z"/>
			<path class="st2" d="M161.23,185.8c-0.04,17.02-0.21,34.05-0.21,51.08c-0.05,4.93-1.23,11.94,0.26,16.67
				c1.3,4.12,4.73,4.03,8.51,5.46c4.66,1.76,9.27,4.12,13.65,6.48c3.94,2.13,13.49,9.66,13.55-0.02c0.03-5.28-1.18-10.47-2.38-15.62
				c-1.81-7.76-4.23-15.36-6.37-23.04c-3.67-13.16-7.34-26.33-11.02-39.49c-0.46-1.64-4.81-19.03-6.23-19.05
				c-5.68-0.09-9.75,2.86-9.75,9.17C161.24,180.23,161.24,183.01,161.23,185.8z"/>
			<path class="st2" d="M161.11,343.57c0.01,0.05,0.02,0.1,0.02,0.14c8.31-6.75,20.89-3.22,29.93-0.1
				c8.59,2.96,16.22,8.1,24.76,11.18c3.07,1.11,10.49,4.05,13.69,2.45c3.96-1.97,0.9-6.6-0.55-9.63c-1.78-3.72-4.15-7.09-6.25-10.62
				c-3.56-5.99-7.94-11.82-12.33-16.96c-10.28-12.06-21.31-21.09-34.43-30.01c-4.83-3.29-9.98-5.82-14.7-9.05
				c0.56,10.77-0.19,21.82-0.19,32.72C161.07,323.47,159.58,333.91,161.11,343.57z"/>
		</g>
		<g>
			<path class="st1" d="M88.14,190.48c2.05,9.63,4.1,19.27,9.04,27.9c1.91,3.34,4.1,7.63,7.21,9.96c3.26,2.44,11.19,9.59,15.59,8.63
				c3.91-0.85,5.47-8.17,6.29-11.44c1.04-4.14,1.32-8.41,1.99-12.61c1.2-7.52,1.22-15.17-0.05-22.68
				c-3.66-21.54-19.42-44.55-40.55-52.05c-5.16-1.83-10.27-2.65-15.65-2.88c-0.7-0.03-8.69-0.64-8.24,0.53
				c1.03,2.67,4.13,5.3,5.77,7.96c2.31,3.76,4.44,7.64,6.37,11.61c2.59,5.34,5.35,10.71,7.36,16.31
				C85.44,177.77,86.79,184.13,88.14,190.48z"/>
			<path class="st1" d="M94.44,243.88c-4.01-0.73-8.14-0.67-12.16,0.01c-1.34,0.23-8.56,0.75-9.18,1.94
				c-2.29,4.37,8,9.14,10.82,10.57c6.56,3.33,16.23,6.02,23.58,5.44c3.62-0.29,5.97-1.67,5.21-5.56
				C111.39,249.45,100.52,244.98,94.44,243.88z"/>
			<path class="st1" d="M119.24,269.9c-0.53-0.11-1.06-0.19-1.59-0.26c-4.58-0.56-9.93-1.83-13.91,1.3
				c-4.65,3.66,2.08,9.48,5.39,11.01c5.22,2.42,11.75,2.94,17.41,2.14c2.53-0.35,7.06-1.99,6.37-5.31
				C131.96,274.24,123.23,270.71,119.24,269.9z"/>
			<path class="st1" d="M135.15,325.44c0.99,1.45,2.23,2.49,3.77,2.67c7.69,0.88,3.93-19.86,2.81-23.64
				c-0.61-2.05-3.24-10.85-6.67-7.03c-3.72,4.15-4.11,12.78-3.32,17.93C132.12,317.82,133.12,322.48,135.15,325.44z"/>
			<path class="st1" d="M83.7,316.82c1.13,1.12,2.32,2.19,3.55,3.18c7.3,5.89,36.3,15.25,31.58-2.66
				c-5.18-19.63-18.15-32.86-35.7-42.04c-10.94-5.72-24.71-8.7-35.26-0.52c2.67-2.05,10.08,5.48,11.64,7.12
				c5.04,5.31,7.52,12.65,11.58,18.72C74.77,306.15,78.79,311.98,83.7,316.82z"/>
			<path class="st1" d="M98.15,342.05c-0.67,0.45-1.11,0.97-1.1,1.58c0.01,1.13,4.84,4.39,5.85,4.93
				c4.22,2.29,10.91,2.89,15.56,1.76c4.07-0.98,13.92-4.5,7.04-9.28c-3.14-2.18-8.33-3.09-12.12-3.07
				c-2.88,0.02-6.02,1.02-8.75,1.83C103.48,340.14,99.96,340.83,98.15,342.05z"/>
			<path class="st2" d="M97.16,213.52c-0.95-0.05-1.9-0.21-2.84-0.48c2.24,6.12,18.79,29.87,27.03,21.85
				c7.61-7.4,7.7-22.29,7.89-32.33c0.22-11.64-1.7-19.72-6.67-30.39c0.45,7.09-0.32,19.51-3.43,25.96
				C115.58,205.51,106.13,214.03,97.16,213.52z"/>
			<path class="st2" d="M109.18,253.01c0.84-0.05,1.7-0.13,2.57-0.27c0.45,1.94,0.9,3.87,1.34,5.81c-5.46,2.44-14.24,4.71-19.8,2.03
				c-4.26-2.05-8.88-3.41-13.05-5.64c-2.89-1.55-6.88-6.2-9.86-6.86c6.88,1.51,13.84,0.84,20.73,2.15
				C97.44,251.42,102.87,253.36,109.18,253.01z"/>
			<path class="st2" d="M117.08,278.16c4.82,1.44,9.79,2.9,14.8,2.41c-3.78,2.93-8.88,3.79-13.62,3.15
				c-4.74-0.63-9.2-2.63-13.39-4.94c-2-1.11-3.34-2.35-3.63-4.57C105.54,273.28,112.75,276.86,117.08,278.16z"/>
			<path class="st2" d="M90.44,307.58c-6.99-3.01-13.83-6.39-20.48-10.11c4.57,8.83,11.08,16.66,18.92,22.77
				c2.43,1.89,5.03,3.64,7.96,4.59c4.7,1.53,10.93,2.98,15.92,2.83c1.97-0.06,4.03-0.84,5.14-2.46c3.84-5.59-2.11-20.29-5.76-24.93
				C110.72,312.85,99.18,311.35,90.44,307.58z"/>
			<path class="st2" d="M111.42,344.36c0.72-0.09,1.43-0.19,2.14-0.3c3.14-0.48,9.28-3.15,12.2-0.99c7.17,5.3-10.35,9.46-13.32,9.07
				c-5.98-0.79-11.99-2.61-15.27-7.98C101.78,345.2,106.73,344.97,111.42,344.36z"/>
			<path class="st2" d="M140.42,327.45c-3.14,0.32-6.07-2.01-7.46-4.85c-1.39-2.83-1.58-6.09-1.74-9.24
				c-0.25-4.8-0.7-11.65,3.5-14.94C136.83,301.24,137.33,327.76,140.42,327.45z"/>
		</g>
		<g>
			<path class="st1" d="M185.98,217.98c4.55,14.49,7.47,29.83,11.21,44.62c0.6,2.37,0.64,5.74-1.74,6.3
				c-0.92,0.22-1.86-0.14-2.74-0.49c-12.57-5.06-25.16-10.13-37.31-16.13c-2.69-1.33-5.6-2.75-8.56-2.23
				c-5.02,0.88-5.4,5.6-4.61,9.75c1.57,8.17,12.83,13.47,18.31,19.01c5.76,5.82,12.89,8.94,19.47,13.75
				c14.75,10.79,27.81,23.92,38.53,38.71c5.17,7.13,8.59,16.03,13.94,22.84c5.24,6.67,14.17,3.93,21.44,0.91
				c13.91-5.78,34.5-17.7,37.82-33.61c4.72-22.65-1.45-46.38-7.63-68.12c-3.55-12.45-5.65-25.21-19.3-30.28
				c-0.81-0.3-8.65-2.05-8.68-2.15c-1.55-5.64-4.16-11.12-8.35-15.2c-3.11-3.04-7.31-4.27-11.51-4.93c-1-0.16-6.14-0.15-6.65-0.49
				c-1.92-1.3-3.52-5.67-5.22-7.64c-5.71-6.63-13.14-9.72-21.04-5.03c-5.31-12.8-10.01-25.82-15.36-38.69
				c-1.16-2.79-2.39-5.68-4.66-7.67c-10.08-8.86-15.32,7.15-14.81,14.3c0.64,9.12,3.99,17.89,6.8,26.52
				C179.18,193.8,182.26,206.11,185.98,217.98z"/>
			<path class="st2" d="M270.85,290.12c-2.63,4.67-6.82,8.46-13.04,10.83c-7.61,2.89-15.62,2.51-23.26,0.96
				c-2.5-0.51-5.43,0-6.94,2.05c-2.48,3.38,0.27,8.01,2.93,11.25c6.73,8.2,18.04,20.17,11.07,31.38c-1.77,2.85-4.4,5.07-7.15,7.01
				c-0.65,0.46-1.36,0.99-1.49,1.77c-0.24,1.53,1.79,2.31,3.34,2.38c10.91,0.47,27.33-4.66,35.95-11.27
				c8.07-6.2,16.28-15.71,18.85-25.7c3.33-12.88,0.38-26.98-0.79-40c-0.68-7.6-3.4-14.76-4.83-22.2
				c-1.49-7.78-3.17-15.72-7.03-22.73c-4.3-7.81-12.11-14.31-21.03-14.5c0.9,3.87,3.05,7.3,4.95,10.79
				C270.3,246.66,280.07,273.78,270.85,290.12z"/>
		</g>
	</g>
	<g>
		<g>
			<g>
				<path class="st0" d="M233.08,354.52c-5.04-13.25-12.64-25.32-21.89-36.03c-9.35-10.84-20.31-20.16-32.05-28.31
					c-6.23-4.33-12.65-8.42-18.65-13.07c-2.97-2.3-5.84-4.75-8.51-7.4c-2.59-2.57-5.44-5.4-6.91-8.8c-1.13-2.63-1.17-6.15,1.2-8.15
					c2.93-2.48,7.42,0.49,10.21,1.84c7.47,3.6,14.82,7.45,22.32,10.99c3.72,1.76,7.49,3.43,11.31,4.98
					c2.01,0.81,4.41,1.91,6.52,0.75c3.32-1.82,2.59-6.93,2.1-9.98c-0.72-4.45-2.15-8.81-3.35-13.14
					c-2.32-8.39-4.66-16.78-6.99-25.17c-4.71-16.96-9.34-33.95-14.12-50.89c-1.68-5.97-4.09-11.83-4.63-18.06
					c-0.25-2.91-0.14-6.02,1.23-8.67c1.16-2.23,2.98-4.77,5.69-5.06c2.22-0.24,4.32,1.08,5.88,2.53c2.07,1.93,3.45,4.31,4.67,6.83
					c3.42,7.13,6.34,14.48,9.03,21.92c5.43,15.05,9.9,30.42,15.39,45.45c1.33,3.63,2.72,7.24,4.19,10.81
					c0.73,1.76,3.63,0.99,2.89-0.8c-6.23-15.1-10.89-30.76-16.09-46.22c-2.58-7.68-5.3-15.32-8.42-22.8
					c-1.53-3.67-3.13-7.3-4.88-10.87c-1.23-2.51-2.87-4.89-4.98-6.74c-1.89-1.66-4.15-2.94-6.7-3.12c-2.61-0.18-5.04,1.1-6.78,2.97
					c-4.71,5.08-4.73,11.95-3.44,18.36c0.65,3.24,1.63,6.41,2.62,9.56c1.06,3.35,2,6.73,2.95,10.12c2.4,8.66,4.81,17.32,7.21,25.98
					c4.73,17.06,9.46,34.12,14.2,51.17c0.89,3.22,1.83,6.54,1.83,9.9c0,0.84-0.04,1.52-0.28,2.29c-0.16,0.51-0.39,0.86-0.73,1.02
					c-0.01,0.01-0.37,0.09-0.53,0.1c-0.42,0.01-0.8-0.08-1.21-0.2c-1.83-0.54-3.62-1.4-5.37-2.15c-7.75-3.31-15.26-7.15-22.8-10.92
					c-3.76-1.88-7.52-3.84-11.39-5.5c-3.3-1.41-7.11-1.93-9.89,0.8c-2.2,2.16-2.98,5.48-2.45,8.45c0.67,3.73,3.13,6.85,5.6,9.6
					c5.12,5.71,11.21,10.46,17.46,14.88c6.24,4.41,12.69,8.52,18.82,13.09c5.88,4.38,11.48,9.12,16.74,14.23
					c10.35,10.05,19.33,21.58,25.82,34.5c1.59,3.16,3.01,6.4,4.27,9.71C230.87,357.1,233.77,356.33,233.08,354.52L233.08,354.52z"/>
			</g>
			<g>
				<path class="st0" d="M205.82,187.04c3.76-1.52,7.83-0.76,11.26,1.25c3.72,2.19,6.34,5.76,8.46,9.43
					c2.32,4.02,4.27,8.26,6.26,12.45c2.12,4.44,4.16,8.91,6.06,13.45c2.12,5.09,4.05,10.26,5.71,15.52c0.58,1.83,3.48,1.05,2.89-0.8
					c-3.17-10.05-7.34-19.75-11.86-29.26c-2.12-4.45-4.18-8.99-6.68-13.24c-2.27-3.87-5.12-7.56-8.99-9.94
					c-4.1-2.53-9.32-3.61-13.9-1.76C203.26,184.86,204.03,187.77,205.82,187.04L205.82,187.04z"/>
			</g>
			<g>
				<path class="st0" d="M231.62,202.32c8.91-0.55,15.44,6.56,19.62,13.58c2.39,4.01,4.45,8.22,6.61,12.35
					c2.39,4.58,4.78,9.16,7.17,13.74c0.89,1.71,3.48,0.2,2.59-1.51c-3.85-7.39-7.65-14.81-11.57-22.16
					c-3.32-6.22-7.26-12.46-13.47-16.15c-3.3-1.96-7.09-3.09-10.94-2.85C229.7,199.43,229.69,202.44,231.62,202.32L231.62,202.32z"
					/>
			</g>
			<g>
				<path class="st0" d="M258.6,222.35c7.69,0.24,13.75,5.97,17.31,12.35c1.98,3.56,3.37,7.4,4.59,11.28
					c1.33,4.22,2.53,8.49,3.63,12.78c2.22,8.71,3.97,17.53,5.24,26.43c1.15,8.05,2.14,16.26,1.78,24.41
					c-0.37,8.51-2.54,17.01-7.85,23.83c-1.17,1.51,0.94,3.64,2.12,2.12c10.6-13.6,9.44-31.27,7.35-47.42
					c-1.22-9.44-2.95-18.82-5.23-28.06c-1.13-4.58-2.38-9.13-3.77-13.64c-1.27-4.13-2.68-8.25-4.67-12.1
					c-4.04-7.83-11.26-14.7-20.51-14.98C256.67,219.29,256.67,222.29,258.6,222.35L258.6,222.35z"/>
			</g>
			<g>
				<path class="st0" d="M133.19,358.69c6.57-4.75,13.87-8.59,21.41-11.55c7.37-2.9,15.41-5.35,23.42-4.91
					c8.36,0.46,16.15,3.98,23.62,7.48c7.66,3.59,15.31,7.17,23.71,8.65c8.41,1.49,17.07,1.18,25.34-0.98
					c8.25-2.16,15.82-6.12,22.65-11.17c12.35-9.14,22.4-21.02,30.3-34.15c8-13.3,13.9-27.83,18.21-42.71
					c3.27-11.29,5.64-22.82,7.14-34.47c1.38-10.69,2.1-21.51,1.6-32.28c-0.49-10.57-2.01-21.67-7.01-31.15
					c-4.85-9.18-14.1-16.15-24.9-15.34c-8.19,0.61-15.44,5.41-21.06,11.13c-4.94,5.03-7.84,11.57-12.3,16.97
					c-2.16,2.61-4.64,4.83-7.74,6.26c-1.75,0.81-0.23,3.4,1.51,2.59c6.37-2.95,10.26-9,13.94-14.69c1.85-2.87,3.7-5.76,6.02-8.28
					c2.65-2.88,5.74-5.44,9.12-7.42c6.25-3.67,13.44-4.73,20.23-1.93c3.94,1.63,7.34,4.44,9.86,7.86
					c5.92,8.03,8.02,18.47,8.93,28.21c1.01,10.83,0.57,21.79-0.56,32.6c-1.08,10.32-2.9,20.56-5.39,30.64
					c-3.64,14.72-8.72,29.14-15.75,42.59c-6.96,13.32-15.87,25.7-27.15,35.7c-5.97,5.3-12.58,10.01-19.91,13.23
					c-7.71,3.38-16.16,5.02-24.57,4.73c-8.49-0.29-16.53-2.69-24.23-6.14c-7.4-3.32-14.62-7.22-22.47-9.37
					c-3.9-1.07-7.97-1.68-12.02-1.57c-3.81,0.1-7.62,0.81-11.3,1.76c-7.91,2.04-15.56,5.31-22.72,9.23
					c-3.26,1.79-6.43,3.74-9.44,5.92C130.12,357.22,131.62,359.82,133.19,358.69L133.19,358.69z"/>
			</g>
		</g>
		<g>
			<g>
				<path class="st0" d="M103.05,189.17c5.77,26.31,15.39,52.4,31.61,74.14c4.55,6.1,9.57,11.81,15.1,17.03
					c1.4,1.32,3.53-0.79,2.12-2.12c-19.48-18.38-32.15-42.66-40.14-67.98c-2.27-7.2-4.18-14.5-5.8-21.87
					C105.53,186.48,102.64,187.28,103.05,189.17L103.05,189.17z"/>
			</g>
			<path class="st0" d="M121.97,167.55c-6.87-12.69-17.67-23.73-30.97-29.59c-8.66-3.81-18.17-5.32-27.58-4.31
				c-1.36,0.15-1.89,1.5-1.06,2.56c6.17,7.89,11.35,16.57,15.43,25.72c4.15,9.32,6.79,19.05,8.89,29.01
				c2.07,9.81,3.97,20.17,9.22,28.87c4.26,7.06,10.66,12.39,17.91,16.19c1.08,0.56,2.17,1.1,3.27,1.6c1.06,0.48,2.28,1.24,3.47,1.16
				c1.37-0.09,1.95-1.23,2.48-2.32c0.65-1.34,1.26-2.7,1.83-4.07c2.28-5.5,3.85-11.26,4.77-17.14
				C132.08,199.06,129.8,182.03,121.97,167.55z M122.89,229.25c-0.18,0.49-2.07,5.17-2.76,6.44c-0.06-0.02-0.12-0.05-0.18-0.07
				c-0.19-0.12-0.47-0.2-0.68-0.3c-0.45-0.2-0.9-0.4-1.34-0.61c-0.93-0.44-1.86-0.9-2.77-1.38c-6.97-3.68-13.07-8.78-17.05-15.67
				c-4.9-8.48-6.64-18.51-8.64-27.97c-2.02-9.58-4.61-18.89-8.49-27.9c-3.89-9.02-8.86-17.51-14.74-25.38
				c14.29-0.74,27.97,4.56,38.63,14.14c10.94,9.83,18.36,23.08,21.27,37.47c1.75,8.66,1.92,17.66,0.6,26.39
				C125.95,219.49,124.69,224.46,122.89,229.25z"/>
			<path class="st0" d="M115.28,257.53c-3.88-11.8-17.27-15.87-28.54-15.84c-2.89,0.01-5.79,0.28-8.63,0.82
				c-2.49,0.47-7.04,1.05-7.6,4.07c-0.37,1.97,1.26,3.44,2.75,4.4c1.66,1.08,3.36,2.12,5.04,3.16c3.5,2.16,7.06,4.25,10.82,5.91
				c4.05,1.78,8.36,3.14,12.82,3.2c4.56,0.06,8.93-1.38,12.64-4.02c0.05-0.03,0.09-0.07,0.13-0.11
				C115.21,258.81,115.51,258.26,115.28,257.53z M93.28,258.5c-6.61-2.37-12.84-6.32-18.65-10.21c-0.42-0.28-1.35-0.83-1.01-1.35
				c0.26-0.41,1.42-0.58,1.85-0.71c1.09-0.32,2.2-0.58,3.31-0.8c2.43-0.47,4.9-0.69,7.37-0.73c5.16-0.08,10.44,0.65,15.22,2.65
				c4.67,1.95,8.73,5.28,10.64,10c-2.65,1.67-5.58,2.73-8.75,2.88C99.85,260.39,96.48,259.65,93.28,258.5z"/>
			<path class="st0" d="M135.08,280.3c-2.13-6.36-8.2-10.25-14.54-11.52c-4.66-0.93-10-1.57-14.64-0.28
				c-2.34,0.65-4.62,2.11-5.09,4.66c-0.02,0.08-0.02,0.16-0.02,0.24c-0.01,0.05-0.03,0.1-0.03,0.16c-0.36,3.22,1.82,5.35,4.3,7
				c2.47,1.65,5.27,2.87,8.07,3.85c6.94,2.43,15.19,1.99,21.26-2.41C134.91,281.61,135.31,280.96,135.08,280.3z M114.36,281.65
				c-2.34-0.78-4.63-1.79-6.75-3.04c-1.89-1.12-3.97-2.41-3.87-4.78c0.45-1.95,2.76-2.52,4.61-2.79c2.74-0.4,5.61-0.2,8.35,0.13
				c5.96,0.73,12.56,3.1,15.11,8.94C126.61,283.31,120.1,283.57,114.36,281.65z"/>
		</g>
		<g>
			<path class="st0" d="M119.71,316.39c-0.51-2.64-1.24-5.24-2.18-7.77c-1.92-5.2-4.63-10.08-7.99-14.49
				c-7.59-9.96-18.12-17.16-29.62-21.91c-10.3-4.2-22.52-6.5-31.93,0.97c-0.74,0.59-0.49,1.95,0.3,2.36
				c4.23,2.18,8.09,4.56,11.06,8.37c3.69,4.74,6.24,10.29,9.16,15.5c5.35,9.53,12.36,18.64,22,24.14
				c4.84,2.76,10.25,4.54,15.81,4.98c2.69,0.21,5.39,0.06,8.04-0.42c2.4-0.44,5.3-1.06,5.96-3.8
				C120.92,321.86,120.18,318.83,119.71,316.39z M117.33,323.84c-0.48,0.92-2.24,1.07-3.15,1.26c-2.58,0.54-5.23,0.64-7.86,0.43
				c-5.16-0.41-10.21-2.17-14.66-4.78c-9.02-5.27-15.52-13.88-20.56-22.85c-3.06-5.45-5.74-11.18-9.63-16.11
				c-2.64-3.35-5.95-5.69-9.58-7.72c8.23-5.08,18.76-2.41,27.23,1.04c18.99,7.84,35.85,24.08,38.2,45.36
				C117.43,321.42,117.8,322.94,117.33,323.84z"/>
			<g>
				<path class="st0" d="M80.33,294.15c6.9,8.74,14.67,16.78,23.19,23.95c8.48,7.14,17.73,13.92,27.78,18.68
					c5.79,2.74,11.91,4.66,18.33,5.04c1.93,0.11,1.92-2.89,0-3c-11.09-0.65-21.08-6.33-30.1-12.38
					c-9.02-6.05-17.41-13.02-25.04-20.75c-4.26-4.32-8.28-8.89-12.04-13.65C81.25,290.51,79.14,292.65,80.33,294.15L80.33,294.15z"
					/>
			</g>
			<path class="st0" d="M142.31,301.55c-0.94-2.37-2.2-4.73-4.12-6.46c-0.84-0.76-1.94-1.25-2.97-0.51
				c-1.02,0.73-1.68,2.27-2.23,3.36c-2.55,5.04-3.35,10.6-2.64,16.18c0.36,2.82,0.93,5.61,2.03,8.24c1.02,2.46,2.64,5.32,5.19,6.45
				c0.03,0.01,0.06,0.02,0.1,0.03c0.08,0.04,0.17,0.09,0.26,0.12c5.34,1.83,7.03-5.78,7.18-9.46
				C145.34,313.5,144.52,307.16,142.31,301.55z M141.67,322.76c-0.34,1.28-1.13,3.78-2.82,3.34c-3.25-1.64-4.49-6.51-5.13-9.75
				c-0.84-4.23-0.94-8.53,0.23-12.7c0.29-1.04,0.64-2.06,1.07-3.05c0.2-0.46,0.42-0.9,0.64-1.34c0.23-0.44,0.73-1.04,0.89-1.54
				c0.29,0.31,0.58,0.61,0.84,0.95c0.64,0.85,1.16,1.79,1.61,2.74c1.96,4.16,2.8,9.05,3.05,13.61
				C142.21,317.56,142.32,320.29,141.67,322.76z"/>
			<path class="st0" d="M129.47,344.21c-0.33-1.58-1.59-2.69-2.84-3.6c-2.57-1.77-5.67-2.86-8.68-3.59
				c-1.85-0.44-3.68-0.78-5.56-0.41c-3.98,0.78-7.95,1.95-11.78,3.27c-1.42,0.49-3.26,0.96-4.38,2.03
				c-2.04,1.95,1.51,4.26,2.88,5.31c5.13,3.92,11.89,5.69,18.29,4.94c3.58-0.42,7.78-1.52,10.53-3.98
				C129.04,347.17,129.79,345.74,129.47,344.21z M98.18,344.15c0.03-0.01,0.06-0.03,0.1-0.04
				C98.26,344.12,98.23,344.14,98.18,344.15z M123.73,347.29c-2.4,1.17-5.09,1.83-7.76,1.99c-5.29,0.31-10.67-1.17-14.94-4.34
				c-0.51-0.38-1-0.79-1.47-1.22c-0.05-0.04-0.11-0.11-0.18-0.19c1.06-0.47,2.29-0.86,3.46-1.24c3.3-1.06,6.67-2.03,10.07-2.74
				c0.24-0.05,0.49-0.09,0.73-0.14c0.03-0.01,0.04-0.01,0.06-0.01c0.02,0,0.03,0,0.06,0c1.1,0.05,2.15,0.22,3.22,0.47
				c2.84,0.67,5.71,1.66,8.13,3.33c0.52,0.38,1.52,1.1,1.43,1.86C126.43,346.11,124.51,346.91,123.73,347.29z"/>
		</g>
		<g>
			<path class="st0" d="M206.91,64.42c-2.2-3.76-6.21-6.17-10.54-6.43c-0.67-0.04-1.35-0.02-2.03-0.02c-8.75,0-17.5,0-26.24,0
				c-11.97,0-23.93,0-35.9,0c-3.76,0-7.51,0-11.27,0c-0.74,0-1.49-0.01-2.23,0c-3.18,0.03-6.17,1.09-8.61,3.15
				c-2.91,2.45-4.49,6.14-4.54,9.91c-0.01,0.92,0,1.83,0,2.75c0,4.86,0,9.72,0,14.58c0,10.36,0,20.71,0,31.07
				c0,1.5,0.02,2.97,0.38,4.45c1.02,4.21,4.19,7.61,8.22,9.11c2.37,0.88,4.84,0.77,7.33,0.77c3.07,0,6.14,0,9.21,0
				c2.48,0,4.95-0.28,7.43-0.2c2.44,0.08,4.16,0.83,5.86,2.57c3.07,3.13,5.33,6.85,8.97,9.42c1.47,1.04,3.36,2.03,5.21,1.61
				c1.9-0.43,2.92-2.27,3.28-4.06c0.32-1.63,0.22-3.26,0.2-4.91c-0.01-1.21-0.08-2.79,0.94-3.66c1.6-1.36,4.62-1.15,6.57-1.17
				c2.85-0.02,5.7,0.22,8.55,0.34c5.98,0.25,11.99,0.06,17.97,0.06c7.42-0.11,13-6.11,13.02-13.43c0.01-3.61,0-7.21,0-10.82
				c0-11.31,0-22.62,0-33.94C208.69,71.72,208.95,67.9,206.91,64.42z M204.92,124.62c-1.56,3.73-5.26,6.08-9.26,6.14
				c-5.98,0-12,0.19-17.97-0.06c-2.7-0.11-5.4-0.33-8.1-0.34c-2.46,0-5.23,0.01-7.52,1.01c-3.26,1.43-3.48,4.71-3.41,7.84
				c0.03,1.38,0.25,3.46-0.67,4.64c-0.88,1.13-2.84-0.4-3.65-0.99c-3.53-2.55-5.63-6.42-8.76-9.37c-1.6-1.51-3.37-2.46-5.56-2.77
				c-2.36-0.33-4.73-0.09-7.1,0c-2.84,0.11-5.69,0.03-8.53,0.03c-2.53,0-5.33,0.33-7.82-0.2c-4.03-0.86-7.17-4.08-7.88-8.15
				c-0.46-2.63-0.13-5.57-0.13-8.22c0-5.49,0-10.97,0-16.46c0-8.85-0.04-17.71,0-26.56c0.03-5.74,4.54-10.18,10.26-10.2
				c2.35-0.01,4.71,0,7.06,0c10.71,0,21.42,0,32.12,0c10.47,0,20.95,0,31.42,0c2.06,0,4.12-0.02,6.18,0
				c5.9,0.07,10.09,4.78,10.09,10.54c0,9.36,0,18.72,0,28.09c0,5.26,0,10.52,0,15.78C205.69,118.34,206.09,121.82,204.92,124.62z"/>
			<g>
				<path class="st1" d="M118.55,80.04c8.35,0,16.71,0,25.06,0c13.26,0,26.52,0,39.78,0c3.04,0,6.09,0,9.13,0c1.93,0,1.93-3,0-3
					c-8.35,0-16.71,0-25.06,0c-13.26,0-26.52,0-39.78,0c-3.04,0-6.09,0-9.13,0C116.62,77.04,116.62,80.04,118.55,80.04L118.55,80.04
					z"/>
			</g>
			<g>
				<path class="st1" d="M118.55,99.06c8.35,0,16.71,0,25.06,0c13.26,0,26.52,0,39.78,0c3.04,0,6.09,0,9.13,0c1.93,0,1.93-3,0-3
					c-8.35,0-16.71,0-25.06,0c-13.26,0-26.52,0-39.78,0c-3.04,0-6.09,0-9.13,0C116.62,96.06,116.62,99.06,118.55,99.06L118.55,99.06
					z"/>
			</g>
			<g>
				<path class="st1" d="M118.55,118.08c8.35,0,16.71,0,25.06,0c13.26,0,26.52,0,39.78,0c3.04,0,6.09,0,9.13,0c1.93,0,1.93-3,0-3
					c-8.35,0-16.71,0-25.06,0c-13.26,0-26.52,0-39.78,0c-3.04,0-6.09,0-9.13,0C116.62,115.08,116.62,118.08,118.55,118.08
					L118.55,118.08z"/>
			</g>
		</g>
		<g>
			<g>
				<g>
					<path class="st0" d="M192.26,159.02c6.54,0,13.08,0,19.62,0c9.45,0,18.89,0,28.34,0c2.87,0,5.71-0.16,8.45,0.89
						c5.32,2.03,8.42,7.21,8.43,12.77c0.01,7.95,0,15.91,0,23.86c0,7.96-0.15,15.93,0,23.89c0,0.14,0,0.28,0,0.42c0,1.93,3,1.93,3,0
						c0-6.94,0-13.88,0-20.82c0-8.86,0-17.72,0-26.58c0-4.87-1.37-9.45-4.98-12.9c-3.47-3.32-7.86-4.52-12.54-4.52
						c-8.71,0-17.42,0-26.12,0c-7.92,0-15.85-0.16-23.77,0c-0.14,0-0.28,0-0.42,0C190.33,156.02,190.33,159.02,192.26,159.02
						L192.26,159.02z"/>
				</g>
				<g>
					<path class="st0" d="M152.82,250.72c0-3.26,0-6.53,0-9.79c0-7.58,0-15.16,0-22.73c0-8.43,0-16.85,0-25.28
						c0-5.94,0-11.88,0-17.82c0-0.95-0.01-1.9,0-2.85c0.05-5.56,3.58-10.7,8.9-12.5c1.4-0.47,2.84-0.7,4.31-0.72
						c1.93-0.02,1.93-3.02,0-3c-6.1,0.07-11.86,3.51-14.54,9.05c-1.26,2.59-1.67,5.33-1.67,8.17c0,5.09,0,10.17,0,15.26
						c0,8.41,0,16.82,0,25.23c0,8.1,0,16.2,0,24.31c0,4.15-0.17,8.35,0,12.5c0,0.06,0,0.13,0,0.19
						C149.82,252.65,152.82,252.65,152.82,250.72L152.82,250.72z"/>
				</g>
				<g>
					<path class="st0" d="M152.82,346.87c0-8.56,0-17.13,0-25.69c0-13.55,0-27.1,0-40.65c0-3.12,0-6.24,0-9.36c0-1.93-3-1.93-3,0
						c0,8.56,0,17.13,0,25.69c0,13.55,0,27.1,0,40.65c0,3.12,0,6.24,0,9.36C149.82,348.8,152.82,348.81,152.82,346.87L152.82,346.87
						z"/>
				</g>
			</g>
			<g>
				<g>
					<path class="st0" d="M162.84,343.2c0-7.16,0-14.32,0-21.47c0-11.41,0-22.82,0-34.24c0-2.62,0-5.25,0-7.87c0-1.93-3-1.93-3,0
						c0,7.16,0,14.32,0,21.47c0,11.41,0,22.82,0,34.24c0,2.62,0,5.25,0,7.87C159.84,345.14,162.84,345.14,162.84,343.2L162.84,343.2
						z"/>
				</g>
				<g>
					<path class="st0" d="M196.51,169.79c12.46,0,24.92,0,37.39,0c2.33,0,4.66,0,6.99,0c3.24,0,6.3,1.44,7.29,4.79
						c0.55,1.85,0.29,4.07,0.29,5.97c0,3.62,0,7.24,0,10.86c0,6.45,0,12.91,0,19.36c0,1.93,3,1.93,3,0c0-5.62,0-11.25,0-16.87
						c0-5.78,0.1-11.58,0-17.36c-0.09-5.39-4.38-9.66-9.77-9.75c-1.59-0.03-3.18,0-4.77,0c-7.67,0-15.34,0-23,0
						c-5.7,0-11.42-0.16-17.11,0c-0.1,0-0.2,0-0.3,0C194.58,166.79,194.57,169.79,196.51,169.79L196.51,169.79z"/>
				</g>
				<g>
					<path class="st0" d="M162.84,255.25c0-9.94,0-19.89,0-29.83c0-14.39,0-28.78,0-43.17c0-1.73,0-3.45,0-5.18
						c0-3.92,2.64-7.19,6.74-7.28c1.93-0.04,1.93-3.04,0-3c-5.38,0.11-9.65,4.38-9.74,9.77c-0.02,1.01,0,2.01,0,3.02
						c0,5.74,0,11.47,0,17.21c0,8.15,0,16.3,0,24.45c0,7.53,0,15.06,0,22.58c0,3.74-0.17,7.52,0,11.26c0,0.05,0,0.11,0,0.16
						C159.84,257.18,162.84,257.18,162.84,255.25L162.84,255.25z"/>
				</g>
			</g>
		</g>
	</g>
</g>
<g id="步驟4">
</g>
</svg>
