<?xml version="1.0" encoding="utf-8"?>
<!-- Generator: Adobe Illustrator 25.0.0, SVG Export Plug-In . SVG Version: 6.00 Build 0)  -->
<svg version="1.1" xmlns="http://www.w3.org/2000/svg" xmlns:xlink="http://www.w3.org/1999/xlink" x="0px" y="0px"
	 viewBox="0 0 400 400" style="enable-background:new 0 0 400 400;" xml:space="preserve">
<style type="text/css">
	.st0{fill:#81CE96;}
	.st1{fill:#FFFFFF;}
	.st2{fill:#EBEBEB;}
	.st3{fill:#E6E6E6;}
	.st4{fill:none;stroke:#81CE96;stroke-miterlimit:10;}
</style>
<g id="步驟1">
</g>
<g id="步驟2">
</g>
<g id="步驟3">
</g>
<g id="步驟4">
	<g>
		<path class="st1" d="M135.72,337.73c22.41-0.39,42.54,11.03,63.2,18.58c9,3.29,18.54,4.64,28.07,5.25
			c9.09,0.59,50.05,5.01,48.24-10.96c-1.19-10.51,0.05-20.68,0.05-31.08c0-22.07,0-44.13,0-66.2c0-18.35,0-36.69,0-55.04
			c0-9.94-8.06-17.99-17.99-17.99H136.2c-9.94,0-17.99,8.06-17.99,17.99c0,41.38,0,82.77,0,124.15c0,5.85,0.12,11.57-0.65,17.36
			C123.53,338.52,129.62,337.84,135.72,337.73z"/>
		<g>
			<path class="st1" d="M72.43,323.32c9.78,11.73,24.96,22.12,40.99,17.61c6.65-1.87,4.41-10.23,4.51-16.11
				c0.12-6.86,0.1-13.72-0.07-20.58c-0.17-7.41,0.36-12.79-4.26-19.23c-7.52-10.49-19.24-21.1-30.5-27.23
				c-6.2-3.37-13.51-4.65-20.45-5.39c-2.42-0.26-15.95-2.66-10.8,4.01c5.55,7.2,7.55,16.4,8.46,25.32
				c1.03,10.22,1.62,21.3,5.72,31.07C67.72,316.82,69.88,320.27,72.43,323.32z"/>
			<path class="st2" d="M98.86,298.05c-6.41,4.38-16.95,3.59-22.75,0.74c-5.02-2.47-10.17-5.27-15.47-6.61
				c0.02,0,2.75,14.33,3.33,15.94c2.14,5.98,5.27,11.61,9.26,16.55c7.71,9.55,19.83,18.43,32.66,17.76
				c1.49-0.08,11.44-1.73,11.55-2.78c1.42-13.32,1.72-26.76,0.91-40.13c-0.48-7.93-7.55-22.23-15.29-25.41
				c1.38,0.57,0.81,17.35-0.05,19.17C102.04,295.29,100.61,296.86,98.86,298.05z"/>
		</g>
		<g>
			<path class="st1" d="M301.06,50.17c-11.09,17.89-5.95,41.45-12.87,61.34c-4.34,12.48-13.21,22.85-18.72,34.86
				c-3.55,7.72-10.51,26-5.49,34.13c2.29,3.72,6.8,4.86,8.89,9.54c5.37,12.02,2.46,26.35,2.32,39.03
				c-0.19,16.57-0.18,33.15-0.27,49.72c-0.01,1.67,5.74-4.33,6.05-4.62c7.12-6.67,13.44-14.41,19.46-22.39
				c7.08-9.39,13.3-19.45,18.05-30.22c8.84-20.08,12.31-42,13.51-63.77c0.75-13.69-0.67-27.43,1.27-40.9
				c2.87-19.92,18.61-71.63-14.86-76.98c-4.95-0.79-9.98,1.59-13.56,5.09s-5.99,8.01-8.3,12.45"/>
			<path class="st2" d="M315.94,225.14c-4.05,8.75-9.58,16.66-15.14,24.49c-2.5,3.52-4.58,7.45-7.05,10.88
				c-3,4.16-7.18,7.3-10.37,11.3c-2.27,2.85-4.93,6.06-8.54,7.19c0.18-5.98,0.02-11.84,0.04-17.78c0.04-17.44,0.5-35.1-0.06-52.52
				c-0.25-7.81,2.33-17.79-5.01-23.4c-1.28-0.98-5.35-2.6-6.04-3.67c-0.53-0.83-0.57-1.87-0.6-2.86c-0.08-3.76-0.2-7.52-0.2-11.24
				c0.7-5.09,2.17-10.1,4.28-14.78c1.86-4.15,5.99-8.02,7.46-12.09c-4.83,13.36-6.66,37.15,13.14,37.34
				c8.74,0.09,16.52-5.31,23.12-11.03c4.68-4.06,8.69-8.7,12.98-13.15c3.92-4.06,5.52-8.52,7.53-13.82
				c0.97,5.03,0.73,10.08,0.64,15.15c-0.24,13.08-2,26.12-5.18,38.8C324.27,204.67,320.58,215.12,315.94,225.14z"/>
		</g>
		<g>
			<circle class="st2" cx="191.93" cy="131.22" r="39.53"/>
			<circle class="st0" cx="192.05" cy="131.22" r="28.67"/>
			<g>
				<path class="st2" d="M182.65,151.92c-0.54,0-0.97-0.16-1.29-0.47s-0.47-0.75-0.47-1.29v-21.31c0.03-2.35,0.59-4.46,1.69-6.34
					c1.1-1.88,2.59-3.36,4.47-4.45c1.88-1.08,4-1.63,6.34-1.63c2.41,0,4.56,0.55,6.46,1.65c1.9,1.1,3.39,2.6,4.49,4.49
					c1.1,1.9,1.65,4.05,1.65,6.46c0,2.38-0.54,4.52-1.6,6.41s-2.52,3.39-4.36,4.49c-1.84,1.1-3.91,1.65-6.23,1.65
					c-2.02,0-3.85-0.43-5.49-1.29c-1.64-0.86-2.96-1.99-3.95-3.41v13.28c0,0.54-0.16,0.97-0.47,1.29
					C183.58,151.77,183.16,151.92,182.65,151.92z M193.4,138.42c1.75,0,3.31-0.41,4.7-1.22c1.38-0.81,2.48-1.93,3.27-3.36
					c0.8-1.43,1.2-3.03,1.2-4.81c0-1.81-0.4-3.42-1.2-4.83c-0.8-1.41-1.89-2.54-3.27-3.36c-1.39-0.83-2.95-1.24-4.7-1.24
					c-1.72,0-3.27,0.41-4.65,1.24c-1.38,0.83-2.47,1.95-3.25,3.36c-0.78,1.42-1.17,3.03-1.17,4.83c0,1.78,0.39,3.38,1.17,4.81
					c0.78,1.43,1.87,2.55,3.25,3.36S191.68,138.42,193.4,138.42z"/>
			</g>
		</g>
		<g>
			<circle class="st1" cx="129.01" cy="194.27" r="61.92"/>
			<circle class="st0" cx="129.01" cy="194.27" r="49.56"/>
			<g>
				<path class="st1" d="M111.91,222.51c-0.62,0-1.14-0.2-1.54-0.61c-0.41-0.41-0.61-0.92-0.61-1.54v-34.68
					c0.09-3.78,1.02-7.14,2.76-10.09c1.75-2.94,4.13-5.28,7.14-7c3.01-1.72,6.39-2.58,10.12-2.58c3.83,0,7.26,0.87,10.3,2.62
					c3.04,1.75,5.43,4.14,7.18,7.18c1.75,3.04,2.62,6.47,2.62,10.3c0,3.78-0.87,7.19-2.62,10.23c-1.75,3.04-4.14,5.43-7.18,7.18
					c-3.04,1.75-6.47,2.62-10.3,2.62c-3.45,0-6.55-0.74-9.3-2.23c-2.75-1.48-4.89-3.47-6.43-5.96v22.4c0,0.62-0.19,1.14-0.57,1.54
					C113.1,222.31,112.58,222.51,111.91,222.51z M129.79,202.12c3.02,0,5.71-0.71,8.08-2.12c2.37-1.41,4.25-3.33,5.64-5.74
					c1.39-2.42,2.08-5.13,2.08-8.15c0-3.06-0.69-5.8-2.08-8.22c-1.39-2.42-3.27-4.33-5.64-5.74c-2.37-1.41-5.06-2.12-8.08-2.12
					c-2.97,0-5.65,0.71-8.04,2.12c-2.39,1.41-4.27,3.33-5.64,5.74c-1.36,2.42-2.05,5.16-2.05,8.22c0,3.02,0.68,5.73,2.05,8.15
					c1.36,2.42,3.24,4.33,5.64,5.74C124.14,201.42,126.82,202.12,129.79,202.12z"/>
			</g>
		</g>
		<g>
			<path class="st0" d="M120.64,87.05c4.87,1.29,8.3,2.23,10.31,6.75c2.24,5.03,3.84,10.59,4.16,16.11
				c-0.28-4.89,0.57-13.11,3.89-16.8c2.77-3.08,10.42-9.02,14.71-9.39c-9.92,0.87-20.82-8.92-19.44-19.45
				c-0.67,5.08-1.54,11.55-4.72,15.77c-3.38,4.47-10.5,5.29-15.91,5.47C115.93,85.94,118.3,86.43,120.64,87.05z"/>
			<path class="st0" d="M255.98,105.37c-0.64-2.03-1.02-3.9-1.15-5.08c1.03,9.51-6.21,14.56-14.64,15.94
				c3.69,0.33,9.41,0.4,12.39,2.95c3.53,3.03,4.26,9.04,4.23,13.4c0.13-9.25,1.36-20.02,13.75-18.7
				C264.78,114.6,257.81,111.13,255.98,105.37z"/>
			<g>
				<path class="st0" d="M223.25,72.18c2.7,3.49,3.93,8.13,3.12,12.48c0.98,0.13,1.96,0.27,2.95,0.4c0.52-4.55,1.49-9.27,4.16-13.09
					c2.36-3.37,6.57-6.02,10.8-5.38c1.87,0.28,2.72-2.55,0.8-2.89c-9.98-1.8-13.28-12.15-14.04-21.05c-0.16-1.9-3.13-1.94-3,0
					c0.32,4.62-2.12,9.42-4.71,13.08c-2.33,3.3-6.41,7.6-10.92,6.82c-1.88-0.33-2.71,2.51-0.8,2.89
					C216.2,66.36,220.29,68.53,223.25,72.18c1.22,1.5,3.33-0.63,2.12-2.12c-3.24-4-7.94-6.5-12.95-7.5
					c-0.27,0.96-0.53,1.93-0.8,2.89c5.73,0.99,10.52-3.17,13.75-7.44c3.17-4.19,6.05-9.96,5.68-15.36c-1,0-2,0-3,0
					c0.86,10.16,4.86,21.89,16.24,23.94c0.27-0.96,0.53-1.93,0.8-2.89c-5.25-0.78-10.27,1.73-13.5,5.83
					c-3.48,4.43-4.64,10.06-5.27,15.53c-0.19,1.67,2.64,2.06,2.95,0.4c1.02-5.53-0.48-10.99-3.9-15.4c-0.5-0.65-1.59-0.52-2.12,0
					C222.61,70.68,222.76,71.54,223.25,72.18z"/>
			</g>
			<g>
				<path class="st0" d="M79.26,109.7c0.96-1.52,1.64-3.28,2.25-4.97c0.6-1.66,1.18-3.46,0.87-5.23c-0.96,0.27-1.93,0.53-2.89,0.8
					c1.34,5.91,4.58,14.14,12.13,12.43c-0.27-0.96-0.53-1.93-0.8-2.89c-3.63,0.93-7.11,2.78-8.89,6.22
					c-1.77,3.4-1.83,7.41-1.67,11.15c0.08,1.92,3.01,1.94,3,0c-0.02-7.32-2.93-16.18-11.62-16.21c0,1,0,2,0,3
					C74.8,113.78,77.45,112.31,79.26,109.7c1.1-1.59-1.5-3.09-2.59-1.51c-1.17,1.69-2.99,2.67-5.03,2.81c-1.91,0.13-1.95,2.99,0,3
					c6.89,0.02,8.61,7.63,8.62,13.21c1,0,2,0,3,0c-0.13-3.1-0.23-6.55,1.14-9.42c1.4-2.91,4.22-4.3,7.21-5.07
					c1.88-0.48,1.08-3.32-0.8-2.89c-5.52,1.25-7.54-6.35-8.44-10.33c-0.43-1.91-3.22-1.07-2.89,0.8c0.2,1.16-0.57,2.84-0.98,3.95
					c-0.5,1.35-1.06,2.72-1.83,3.94C75.63,109.82,78.23,111.33,79.26,109.7z"/>
			</g>
		</g>
	</g>
	<g>
		<g>
			<g>
				<path class="st0" d="M98.88,351.02c9.93-8.26,22.44-11.93,35.23-11.88c12.97,0.04,25.75,3.41,37.83,7.93
					c5.88,2.2,11.49,4.94,17.29,7.32c6.26,2.57,12.8,4.4,19.41,5.81c13.3,2.83,27.05,4.08,40.65,3.74
					c6.6-0.17,13.23-1.09,19.51-3.21c6.08-2.06,11.71-5.18,16.79-9.1c1.38-1.07,2.72-2.18,4.03-3.34c1.45-1.28-0.68-3.4-2.12-2.12
					c-4.92,4.36-10.45,8.1-16.56,10.58c-5.99,2.43-12.37,3.69-18.81,4.07c-13.58,0.8-27.55-0.48-40.87-3.15
					c-6.62-1.32-13.17-3.06-19.47-5.49c-5.9-2.27-11.55-5.14-17.45-7.41c-12.01-4.63-24.7-8.1-37.62-8.59
					c-12.64-0.47-25.42,2.33-35.9,9.62c-1.39,0.97-2.73,2.01-4.04,3.09C95.27,350.13,97.4,352.25,98.88,351.02L98.88,351.02z"/>
			</g>
			<g>
				<path class="st0" d="M189.48,181.79c6.11,0,12.21,0,18.32,0c11.12,0,22.24,0,33.35,0c4.06,0,8.13,0,12.19,0
					c2.4,0,4.92-0.16,7.28,0.34c7.63,1.61,13.11,8.42,13.17,16.19c0.01,0.83,0,1.66,0,2.48c0,5.78,0,11.56,0,17.34
					c0,9.55,0,19.09,0,28.64c0,11.35,0,22.7,0,34.05c0,11.09,0,22.17,0,33.26c0,8.76,0,17.52,0,26.28c0,4.46,0,8.93,0,13.39
					c0,0.2,0,0.4,0,0.6c0,1.93,3,1.93,3,0c0-3.14,0-6.27,0-9.41c0-8.02,0-16.04,0-24.06c0-10.87,0-21.73,0-32.6
					c0-11.54,0-23.09,0-34.63c0-10.18,0-20.35,0-30.53c0-6.73,0-13.45,0-20.18c0-1.42,0-2.84,0-4.26
					c-0.01-5.15-1.82-10.07-5.38-13.83c-3.88-4.09-9.21-6.07-14.78-6.07c-2.79,0-5.58,0-8.37,0c-10.74,0-21.47,0-32.21,0
					c-8.41,0-16.82,0-25.23,0c-0.45,0-0.89,0-1.34,0C187.54,178.79,187.54,181.79,189.48,181.79L189.48,181.79z"/>
			</g>
			<g>
				<path class="st0" d="M119.68,337.72c0-9.28,0-18.56,0-27.83c0-14.8,0-29.6,0-44.4c0-3.41,0-6.82,0-10.24c0-1.93-3-1.93-3,0
					c0,9.28,0,18.56,0,27.83c0,14.8,0,29.6,0,44.4c0,3.41,0,6.82,0,10.24C116.68,339.65,119.68,339.65,119.68,337.72L119.68,337.72z
					"/>
			</g>
			<g>
				<path class="st0" d="M189.48,212.28c6.49,0,12.99,0,19.48,0c10.35,0,20.7,0,31.05,0c2.37,0,4.75,0,7.12,0c1.93,0,1.93-3,0-3
					c-6.49,0-12.99,0-19.48,0c-10.35,0-20.7,0-31.05,0c-2.37,0-4.75,0-7.12,0C187.54,209.28,187.54,212.28,189.48,212.28
					L189.48,212.28z"/>
			</g>
			<g>
				<path class="st0" d="M165.72,246.79c9.19,0,18.37,0,27.56,0c14.62,0,29.24,0,43.86,0c3.33,0,6.66,0,9.99,0c1.93,0,1.93-3,0-3
					c-9.19,0-18.37,0-27.56,0c-14.62,0-29.24,0-43.86,0c-3.33,0-6.66,0-9.99,0C163.79,243.79,163.79,246.79,165.72,246.79
					L165.72,246.79z"/>
			</g>
			<g>
				<path class="st0" d="M143.52,281.3c3.44,0,6.88,0,10.32,0c8.26,0,16.51,0,24.77,0c9.95,0,19.89,0,29.84,0
					c8.64,0,17.27,0,25.91,0c4.19,0,8.42,0.18,12.6,0c0.06,0,0.12,0,0.18,0c1.93,0,1.93-3,0-3c-3.44,0-6.88,0-10.32,0
					c-8.26,0-16.51,0-24.77,0c-9.95,0-19.89,0-29.84,0c-8.64,0-17.27,0-25.91,0c-4.19,0-8.42-0.18-12.6,0c-0.06,0-0.12,0-0.18,0
					C141.59,278.3,141.59,281.3,143.52,281.3L143.52,281.3z"/>
			</g>
			<g>
				<path class="st0" d="M143.52,315.81c3.44,0,6.88,0,10.32,0c8.26,0,16.51,0,24.77,0c9.95,0,19.89,0,29.84,0
					c8.64,0,17.27,0,25.91,0c4.19,0,8.42,0.18,12.6,0c0.06,0,0.12,0,0.18,0c1.93,0,1.93-3,0-3c-3.44,0-6.88,0-10.32,0
					c-8.26,0-16.51,0-24.77,0c-9.95,0-19.89,0-29.84,0c-8.64,0-17.27,0-25.91,0c-4.19,0-8.42-0.18-12.6,0c-0.06,0-0.12,0-0.18,0
					C141.59,312.81,141.59,315.81,143.52,315.81L143.52,315.81z"/>
			</g>
		</g>
		<g>
			<g>
				<path class="st0" d="M313.05,75.56c-0.6,20.38-2.92,40.69-6.96,60.68c-4.02,19.89-9.7,39.44-16.98,58.38
					c-4.12,10.73-8.78,21.26-13.92,31.55c-0.86,1.72,1.73,3.24,2.59,1.51c9.2-18.4,16.84-37.58,22.8-57.27
					c5.96-19.7,10.23-39.89,12.8-60.31c1.44-11.46,2.33-22.99,2.66-34.54C316.11,73.63,313.11,73.63,313.05,75.56L313.05,75.56z"/>
			</g>
			<g>
				<path class="st0" d="M265.08,179.01c-3.12-15.43,4.96-30.23,12.73-42.93c7.01-11.46,14.6-23.03,16.46-36.62
					c1.5-11,0.88-22.19,2.54-33.17c1.53-10.09,5.63-21.5,16.47-24.72c5.28-1.57,10.81-0.06,14.98,3.43
					c4.63,3.88,7.4,9.37,8.53,15.24c3.06,15.87-1.36,31.95-3.99,47.54c-1.38,8.18-2.1,16.36-2.2,24.66
					c-0.1,8.48,0.21,16.96-0.09,25.44c-0.5,13.85-2.77,27.6-6.64,40.9c-3.85,13.23-9.27,25.99-16.12,37.95
					c-6.88,12.01-15.18,23.2-24.76,33.2c-2.32,2.43-4.72,4.78-7.19,7.06c-1.42,1.32,0.71,3.43,2.12,2.12
					c10.44-9.67,19.63-20.67,27.38-32.61c7.75-11.94,14.03-24.84,18.71-38.28c4.68-13.45,7.71-27.46,8.97-41.64
					c1.48-16.64-0.41-33.41,1.55-50.01c1.93-16.37,7.16-32.51,6.16-49.15c-0.41-6.9-1.76-13.85-5.82-19.59
					c-3.29-4.65-8.11-8.5-13.81-9.57c-6.16-1.15-12.16,1.07-16.84,5.08c-3.92,3.37-6.49,7.99-8.12,12.84
					c-3.65,10.83-3.29,22.66-3.96,33.94c-0.3,5.15-0.71,10.36-2.08,15.35c-2,7.27-5.69,14-9.53,20.44
					c-7.96,13.35-17.43,26.64-18.94,42.59c-0.36,3.79-0.15,7.59,0.6,11.32C262.57,181.69,265.46,180.89,265.08,179.01L265.08,179.01
					z"/>
			</g>
		</g>
		<g>
			<g>
				<path class="st0" d="M119.63,296.46c-1.72-7.22-5.69-13.68-10.41-19.32c-4.84-5.78-10.62-10.79-16.84-15.04
					c-6.82-4.65-14.41-8.38-22.48-10.26c-3.8-0.89-7.82-1.29-11.71-1.44c-2.54-0.09-9.67-0.41-9.01,3.89
					c0.24,1.57,1.5,2.79,2.5,3.93c1.27,1.45,2.05,3.26,2.76,5.03c1.58,3.97,2.52,8.16,3.27,12.35c1.57,8.83,1.53,17.88,3.28,26.66
					c1.34,6.72,4.16,13.17,7.98,18.85c7.58,11.24,19.47,20.2,33.07,22.32c1.72,0.27,3.44,0.44,5.17,0.5c1.93,0.07,1.93-2.93,0-3
					c-13.05-0.47-24.89-7.74-32.98-17.71c-4.06-5-7.22-10.8-9.13-16.94c-2.36-7.59-2.43-15.63-3.32-23.46
					c-0.91-7.97-2.26-16.27-5.84-23.53c-0.79-1.6-1.87-2.81-3-4.18c-0.22-0.26-0.43-0.53-0.6-0.83c-0.04-0.07-0.35-0.68-0.2-0.3
					c-0.07-0.18,0.07-0.28-0.02-0.02c0.06-0.18-0.07,0.16-0.09,0.14c0,0-0.05-0.02,0.05-0.05c0.06-0.02,0.4-0.22,0.28-0.16
					c0.09-0.04,0.67-0.2,0.94-0.26c0.82-0.17,1.65-0.22,2.52-0.24c10.94-0.29,21.6,3.09,30.93,8.67
					c6.05,3.61,11.64,8.01,16.57,13.04c4.91,5.01,9.35,10.81,11.93,17.38c0.61,1.56,1.11,3.15,1.5,4.78
					C117.18,299.13,120.08,298.34,119.63,296.46L119.63,296.46z"/>
			</g>
			<g>
				<path class="st0" d="M73.69,274.68c9.56,5.06,16.69,13.5,21.67,22.98c2.42,4.62,4.24,9.46,5.84,14.42
					c1.58,4.91,3.08,9.87,5.26,14.56c2.35,5.06,5.63,9.63,10.33,12.75c1.61,1.07,3.12-1.53,1.51-2.59
					c-8.61-5.72-11.33-16.61-14.32-25.87c-3.26-10.09-7.81-19.75-14.88-27.76c-3.94-4.46-8.62-8.28-13.89-11.07
					C73.5,271.19,71.98,273.78,73.69,274.68L73.69,274.68z"/>
			</g>
		</g>
		<g>
			<path class="st0" d="M153.71,82.21c-9.55,0.72-19.09-8.22-17.94-17.95c0.23-1.92-2.75-1.88-3,0c-0.36,2.75-0.75,5.5-1.46,8.19
				c-0.69,2.6-1.66,5.42-3.57,7.39c-3.49,3.6-9.39,4-14.1,4.16c-1.61,0.06-2.13,2.61-0.4,2.95c2.34,0.45,4.68,0.94,6.99,1.55
				c3.67,0.98,7.36,1.9,9.18,5.56c2.41,4.84,3.85,10.46,4.19,15.84c0.12,1.91,3.1,1.94,3,0c-0.16-2.94,0.02-5.92,0.61-8.8
				c0.53-2.62,1.33-5.37,3.23-7.34c1.87-1.95,4.02-3.65,6.25-5.17c2.02-1.38,4.51-3.11,7.02-3.38
				C155.6,85.01,155.66,82.06,153.71,82.21z M145.46,85.81c-2.54,1.7-5.02,3.62-7.14,5.83c-1.94,2.03-3.03,4.66-3.7,7.35
				c-0.73-2.36-1.64-4.65-2.78-6.76c-2.01-3.74-5.66-5.19-9.48-6.26c2.83-0.71,5.47-1.92,7.49-4.01c2.3-2.38,3.59-5.48,4.42-8.76
				c2.48,5.36,7.53,9.67,13.21,11.32C146.8,84.93,146.12,85.37,145.46,85.81z"/>
			<path class="st0" d="M270.55,112.38c-1.04-0.1-2.07-0.11-3.08-0.03c-4.35-0.54-8.62-3.14-10.05-7.38
				c-0.47-1.53-0.9-3.1-1.09-4.68c-0.22-1.88-3.19-1.94-3,0c0.37,3.81-0.6,7.39-3.44,10.06c-2.74,2.57-6.46,3.82-10.1,4.43
				c-1.78,0.3-1.17,2.81,0.4,2.95c3.76,0.32,8.94,0.07,11.81,2.96c2.95,2.97,3.32,7.93,3.3,11.88c-0.01,1.93,2.97,1.93,3,0
				c0.06-4.08,0.15-8.59,1.96-12.33c0.79-1.63,1.91-3.04,3.52-3.92c1.03-0.56,2.15-0.86,3.3-0.98c1.15,0.14,2.32,0.16,3.46,0.03
				C272.46,115.16,272.49,112.56,270.55,112.38z M257.9,118.28c-0.63,1.17-1.09,2.42-1.45,3.7c-0.59-1.26-1.34-2.42-2.33-3.41
				c-1.76-1.77-4.07-2.63-6.52-3.1c1.69-0.83,3.27-1.88,4.63-3.2c1.39-1.36,2.4-2.96,3.1-4.68c1.47,2.8,3.93,4.99,6.81,6.34
				C260.42,114.89,258.95,116.32,257.9,118.28z"/>
			<path class="st0" d="M245.09,63.69c-9.98-1.8-13.28-12.15-14.04-21.05c-0.16-1.9-3.13-1.94-3,0c0.32,4.62-2.12,9.42-4.71,13.08
				c-2.33,3.3-6.41,7.6-10.92,6.82c-1.88-0.33-2.71,2.51-0.8,2.89c4.57,0.91,8.67,3.08,11.63,6.73c2.43,3.15,3.66,7.22,3.29,11.18
				c-0.08,0.57-0.15,1.14-0.22,1.71c-0.19,1.67,2.64,2.06,2.95,0.4c0.12-0.68,0.21-1.35,0.26-2.02c0.57-4.03,1.6-8.1,3.96-11.46
				c2.36-3.37,6.57-6.02,10.8-5.38C246.16,66.87,247.01,64.04,245.09,63.69z M231.59,69.53c-1.41,1.8-2.43,3.81-3.2,5.92
				c-0.71-1.91-1.73-3.72-3.01-5.39c-1.97-2.43-4.48-4.3-7.27-5.62c2.89-1.4,5.36-3.89,7.27-6.42c1.56-2.07,3.06-4.52,4.12-7.12
				c1.53,5.52,4.31,10.61,9.01,13.51C235.82,65.39,233.41,67.2,231.59,69.53z"/>
			<path class="st0" d="M90.82,109.83c-5.52,1.25-7.54-6.35-8.44-10.33c-0.43-1.91-3.22-1.07-2.89,0.8c0.2,1.16-0.57,2.84-0.98,3.95
				c-0.5,1.35-1.06,2.72-1.83,3.94c-1.17,1.69-2.99,2.67-5.03,2.81c-1.91,0.13-1.95,2.99,0,3c6.31,0.02,8.28,6.4,8.58,11.76
				c0.01,0.49,0.03,0.97,0.05,1.45c0.08,1.92,3.01,1.94,3,0c0-0.53-0.02-1.06-0.05-1.6c-0.07-2.65,0.05-5.44,1.2-7.82
				c1.4-2.91,4.22-4.3,7.21-5.07C93.49,112.24,92.7,109.41,90.82,109.83z M81.92,116.05c-0.24,0.47-0.45,0.96-0.63,1.45
				c-1.04-2.21-2.55-4.06-4.61-5.23c0.98-0.67,1.85-1.53,2.58-2.58c0.79-1.24,1.38-2.64,1.9-4.04c1.08,2.56,2.6,4.91,4.72,6.22
				C84.25,112.91,82.85,114.26,81.92,116.05z"/>
		</g>
		<g>
			<path class="st0" d="M180.73,157.58c-7.44-10.43-17.91-18.45-29.93-22.88c-12.46-4.59-26.38-5.08-39.14-1.45
				c-12.29,3.49-23.44,10.78-31.56,20.65c-8.28,10.06-13.31,22.48-14.32,35.48c-1.02,13.13,2.13,26.48,8.97,37.74
				c6.6,10.87,16.5,19.71,28.11,24.93c12.15,5.47,25.84,6.99,38.9,4.35c12.58-2.55,24.27-9.06,33.12-18.34
				c8.85-9.28,14.82-21.21,16.77-33.89c0.51-3.28,0.77-6.58,0.78-9.9C192.39,181.18,188.35,168.25,180.73,157.58z M178.24,229.31
				c-6.99,9.85-17.04,17.54-28.39,21.69c-11.94,4.36-25.16,4.87-37.39,1.39c-11.73-3.33-22.24-10.26-30.03-19.63
				c-7.9-9.5-12.74-21.47-13.67-33.78c-0.94-12.53,1.99-25.15,8.49-35.92c6.3-10.43,15.73-18.8,26.81-23.86
				c11.44-5.23,24.57-6.68,36.89-4.18c12.06,2.44,23.17,8.58,31.68,17.45c8.54,8.9,14.17,20.33,16.08,32.52
				c0.48,3.07,0.69,6.17,0.7,9.27C189.39,206.81,185.5,219.08,178.24,229.31z"/>
			<path class="st0" d="M170.53,164.56c-6.01-8.34-14.41-14.75-24.07-18.29c-20.04-7.34-43.31-0.97-56.84,15.52
				c-6.67,8.13-10.71,18.14-11.52,28.63c-0.81,10.53,1.74,21.24,7.22,30.27c5.29,8.72,13.21,15.82,22.51,20.03
				c9.85,4.46,20.94,5.7,31.53,3.55c20.5-4.18,36.9-21.32,40.08-42.01c0.41-2.65,0.62-5.32,0.63-8
				C180.03,183.66,176.74,173.18,170.53,164.56z M145.5,239.43c-9.48,3.44-19.94,3.83-29.65,1.08c-9.4-2.67-17.8-8.23-24.01-15.76
				c-12.83-15.53-14.37-38.2-3.94-55.39c10.4-17.14,30.99-26.21,50.65-22.2c19.47,3.97,34.77,19.97,37.93,39.57
				c0.4,2.49,0.57,5.02,0.58,7.54C176.99,214.21,164.32,232.6,145.5,239.43z"/>
		</g>
		<g>
			<g>
				<path class="st0" d="M155.64,137.29c-2.04-12.5,2.52-25.33,11.99-33.73c9.06-8.04,21.86-11.09,33.58-8.09
					c11.41,2.92,21.06,11.42,25.28,22.44c4.35,11.4,2.8,24.4-4.17,34.43c-6.79,9.77-18.21,15.73-30.09,15.78
					c-2.09,0.01-4.18-0.15-6.25-0.49c-1.89-0.31-2.7,2.58-0.8,2.89c13.54,2.21,27.49-2.45,36.65-12.76
					c8.73-9.83,12.11-23.58,8.9-36.33c-3.13-12.44-12.35-22.74-24.27-27.41c-12.24-4.8-26.59-3.05-37.32,4.54
					c-10.68,7.55-17.15,20.04-16.99,33.14c0.03,2.15,0.25,4.28,0.59,6.4C153.06,139.99,155.95,139.18,155.64,137.29L155.64,137.29z"
					/>
			</g>
			<g>
				<path class="st0" d="M168.41,135.11c-1.31-8.16,1.7-16.48,7.9-21.94c5.89-5.19,14.21-7.11,21.79-5.13
					c7.32,1.91,13.54,7.37,16.27,14.44c2.83,7.34,1.9,15.69-2.5,22.21c-5.18,7.67-14.59,11.63-23.7,10.17
					c-1.89-0.3-2.7,2.59-0.8,2.89c9.2,1.47,18.65-1.62,24.86-8.67c5.86-6.66,8.13-15.93,5.95-24.55
					c-2.13-8.41-8.38-15.31-16.43-18.47c-8.2-3.22-17.88-2.04-25.08,3.03c-8.62,6.07-12.81,16.45-11.15,26.81
					C165.82,137.81,168.71,137,168.41,135.11L168.41,135.11z"/>
			</g>
		</g>
	</g>
</g>
</svg>
